<!DOCTYPE svg PUBLIC "-//W3C//DTD SVG 20010904//EN" "http://www.w3.org/TR/2001/REC-SVG-20010904/DTD/svg10.dtd">
<svg version="1.0" xmlns="http://www.w3.org/2000/svg" width="375px" height="360px" viewBox="0 0 3750 3600" preserveAspectRatio="xMidYMid meet" class="mars">
<g id="layer101" fill="#702a1f" stroke="none">
 <path d="M1580 3125 c-248 -38 -471 -134 -654 -281 l-68 -56 -37 33 c-20 19 -69 65 -108 104 -41 38 -73 63 -73 55 -1 -8 45 -58 101 -111 l102 -96 -56 -59 c-139 -149 -251 -341 -303 -522 -9 -31 -18 -60 -21 -64 -2 -4 -40 10 -84 33 -112 56 -123 43 -13 -16 49 -26 90 -48 90 -49 1 -1 -4 -35 -12 -76 -19 -105 -18 -336 2 -451 45 -259 163 -492 348 -687 200 -210 434 -338 716 -393 120 -23 335 -32 375 -16 11 5 49 10 85 12 132 6 362 93 522 198 109 71 314 271 368 359 19 31 39 57 44 58 15 0 125 -70 227 -146 131 -98 245 -199 299 -267 24 -31 46 -55 48 -53 7 8 -84 176 -142 261 -35 51 -122 152 -203 235 l-142 146 34 99 c89 262 91 579 4 838 -138 416 -448 727 -851 856 -196 62 -419 83 -598 56z"/>
 </g>
<g id="layer102" fill="#5b3631" stroke="none">
 <path d="M1581 3124 c-171 -25 -337 -80 -473 -157 -144 -83 -209 -145 -84 -82 70 35 90 31 32 -7 -42 -28 -46 -33 -29 -38 19 -5 17 -10 -27 -59 l-48 -54 -31 22 c-17 13 -29 26 -27 30 3 4 -5 8 -16 8 -22 2 -44 21 -165 138 -40 38 -73 63 -73 56 0 -8 65 -78 145 -157 l145 -142 -24 -43 c-13 -24 -29 -43 -36 -41 -16 4 -60 -37 -60 -55 0 -7 -8 -13 -19 -13 -10 0 -24 -7 -31 -15 -17 -21 -37 -19 -43 5 -9 33 -35 23 -58 -22 -27 -55 -48 -78 -69 -78 -13 0 -29 -28 -58 -97 -22 -54 -46 -118 -52 -143 -7 -25 -14 -48 -17 -52 -2 -4 -40 10 -84 33 -112 56 -123 43 -13 -16 49 -26 90 -48 90 -49 1 -1 -4 -35 -12 -76 -19 -105 -18 -336 2 -451 45 -259 163 -492 348 -687 200 -210 434 -338 716 -393 147 -29 339 -32 391 -7 19 9 46 21 61 27 16 6 36 27 48 50 25 49 25 51 1 51 -11 0 -22 4 -25 9 -7 11 -283 21 -336 11 -23 -4 -49 -15 -58 -24 -14 -13 -14 -19 -2 -42 16 -28 77 -64 110 -64 12 0 18 -5 15 -10 -4 -6 -9 -8 -13 -6 -4 2 -35 7 -68 10 -65 5 -117 23 -108 37 3 5 -6 13 -20 19 -31 12 -32 17 -5 41 11 10 18 23 15 28 -4 6 13 13 43 17 28 4 56 13 62 20 6 8 17 14 25 14 7 0 20 9 28 21 8 12 19 18 26 14 6 -4 18 -1 26 6 12 10 20 10 42 -3 23 -14 33 -14 62 -4 21 7 49 9 70 5 19 -4 42 -3 52 2 25 13 30 11 23 -11 -7 -23 -2 -25 26 -10 15 8 21 7 25 -3 3 -9 13 -13 26 -9 17 4 19 1 14 -15 -4 -13 1 -26 14 -38 28 -26 26 -35 -22 -82 -33 -32 -54 -43 -93 -49 -47 -8 -48 -9 -15 -12 78 -7 325 74 465 153 152 85 364 279 445 408 19 31 39 56 44 57 15 0 125 -70 227 -146 131 -98 245 -199 299 -267 24 -31 46 -55 48 -53 7 8 -84 176 -142 261 -35 51 -122 152 -203 236 l-143 146 29 80 c38 102 60 211 71 341 7 96 0 276 -15 334 -6 24 -9 26 -31 16 -15 -7 -24 -20 -24 -34 0 -27 -19 -42 -30 -24 -6 10 -8 10 -12 0 -3 -10 -10 -9 -32 2 l-29 15 22 22 c11 11 21 23 21 25 0 2 -21 4 -47 3 -46 -2 -47 -1 -55 33 -16 81 -22 95 -36 104 -12 7 -12 10 -1 18 11 7 10 12 -8 25 -13 8 -23 25 -23 37 1 20 1 20 14 3 12 -15 17 -16 34 -6 11 7 24 26 29 43 5 17 16 32 26 34 13 3 17 -4 17 -33 0 -25 5 -38 18 -42 9 -4 30 -17 45 -30 46 -38 60 -31 41 20 -28 72 -92 207 -99 207 -3 0 -3 -4 0 -10 15 -24 -14 -7 -45 28 -19 20 -53 51 -75 67 -22 17 -45 35 -52 41 -41 38 -189 125 -245 143 -37 13 -70 27 -73 31 -3 5 -12 7 -20 4 -7 -3 -35 4 -62 16 -28 13 -75 23 -113 26 -101 5 -158 23 -165 51 -6 26 -59 63 -90 63 -11 0 -28 9 -38 20 -9 11 -27 20 -40 20 -13 0 -32 6 -42 14 -17 12 -18 18 -7 40 16 35 53 34 100 -4 59 -46 109 -64 143 -49 18 7 32 22 36 37 9 36 -22 57 -93 66 -86 10 -104 16 -104 36 0 32 -178 39 -349 14z m44 -34 c-10 -16 -82 -50 -105 -50 -12 0 -33 -6 -48 -14 -15 -8 -49 -17 -76 -21 -39 -6 -48 -5 -44 6 2 8 17 15 32 17 22 3 26 7 20 24 -5 18 -3 20 20 16 14 -3 63 3 108 12 104 22 100 22 93 10z m630 -430 c3 -6 3 -20 -1 -32 -6 -21 -7 -21 -20 -3 -8 10 -14 25 -14 32 0 15 26 18 35 3z m-551 -264 c-3 -8 0 -17 5 -21 6 -3 9 -11 5 -16 -4 -6 -14 -3 -25 7 -14 13 -16 20 -8 31 15 17 30 17 23 -1z m971 -71 c38 -38 43 -65 20 -105 -8 -14 -15 -47 -16 -75 -1 -47 -2 -48 -9 -17 -4 18 -16 42 -25 52 -17 19 -17 21 1 41 12 13 14 23 8 27 -6 4 -14 21 -17 37 -4 17 -9 40 -13 53 -9 32 10 27 51 -13z m-787 -63 c2 -7 -3 -12 -12 -12 -9 0 -16 7 -16 16 0 17 22 14 28 -4z m805 -278 c-7 -20 -10 -18 -15 11 -4 20 -2 23 8 14 7 -6 10 -17 7 -25z m-2130 -475 c-6 -6 -17 -8 -24 -3 -9 5 -8 9 7 14 23 9 31 3 17 -11z m1591 -184 c37 -6 49 -13 65 -39 25 -40 36 -117 22 -145 -9 -16 -9 -21 1 -21 7 0 -2 -14 -20 -31 -30 -27 -38 -29 -80 -23 -60 8 -118 33 -160 69 -32 27 -33 31 -27 74 4 25 11 54 17 64 11 21 107 69 124 63 6 -3 32 -8 58 -11z m614 -151 c23 -14 42 -30 42 -36 0 -6 7 -19 16 -29 15 -16 15 -20 0 -41 -9 -12 -16 -32 -16 -44 0 -12 -11 -29 -25 -38 -14 -9 -25 -25 -25 -35 0 -10 -9 -29 -20 -42 -22 -27 -25 -22 -10 16 8 20 7 27 -5 31 -13 5 -13 9 0 34 21 40 19 67 -6 75 -18 6 -20 14 -17 58 3 47 1 51 -22 57 -16 4 -26 14 -28 28 -3 23 -3 23 35 7 21 -9 57 -27 81 -41z m-1164 -60 c3 -8 1 -14 -4 -14 -6 0 -10 -8 -11 -17 0 -15 -2 -15 -9 2 -14 32 -12 55 4 49 8 -3 17 -12 20 -20z m904 -322 c2 -15 -7 -32 -28 -52 -42 -39 -97 -41 -58 -2 10 10 5 15 -20 24 -43 17 -36 31 24 45 64 15 78 12 82 -15z m-628 -302 c12 -8 9 -10 -13 -10 -16 0 -26 4 -22 10 8 12 16 12 35 0z"/>
 <path d="M2253 3016 c32 -26 99 -67 150 -91 145 -68 247 -130 307 -187 l55 -53 -45 48 c-69 74 -177 160 -191 151 -7 -4 -9 -3 -6 4 9 13 -90 75 -105 66 -6 -4 -8 -3 -5 3 4 6 -32 28 -81 51 -131 61 -146 62 -79 8z"/>
 <path d="M834 2693 c-15 -21 -21 -32 -12 -25 14 11 17 10 20 -5 3 -14 8 -12 26 15 21 29 23 52 3 52 -5 0 -21 -17 -37 -37z"/>
 <path d="M2945 2239 c4 -6 0 -16 -9 -22 -9 -7 -17 -27 -19 -44 -1 -18 -6 -33 -12 -34 -5 0 0 -4 13 -9 12 -5 22 -16 22 -24 0 -10 6 -13 15 -10 11 4 15 0 15 -17 0 -12 3 -19 7 -15 4 3 12 -3 19 -15 10 -19 11 -14 6 30 -4 41 -1 54 12 64 13 10 15 18 7 37 -5 14 -10 21 -10 17 -1 -4 -14 6 -31 23 -29 30 -47 40 -35 19z"/>
 <path d="M3031 2120 c0 -8 4 -24 9 -35 5 -13 9 -14 9 -5 0 8 -4 24 -9 35 -5 13 -9 14 -9 5z"/>
 <path d="M3011 2093 c-1 -18 4 -33 9 -33 12 0 12 17 0 45 -7 17 -9 15 -9 -12z"/>
 </g>
<g id="layer103" fill="#943824" stroke="none">
 <path d="M1581 3124 c-171 -25 -337 -80 -473 -157 -144 -83 -209 -145 -84 -82 70 35 90 31 32 -7 -42 -28 -46 -33 -29 -38 19 -5 17 -10 -27 -60 l-49 -54 -40 32 c-22 18 -44 32 -48 32 -5 0 -57 45 -116 101 -59 55 -107 95 -107 88 0 -7 65 -76 145 -155 l145 -142 -24 -43 c-13 -24 -29 -43 -36 -41 -16 4 -60 -37 -60 -55 0 -7 -8 -13 -19 -13 -10 0 -24 -7 -31 -15 -17 -21 -37 -19 -43 5 -9 33 -35 23 -58 -22 -27 -55 -48 -78 -69 -78 -13 0 -29 -28 -58 -97 -22 -54 -46 -118 -52 -143 -7 -25 -14 -48 -17 -52 -2 -4 -40 10 -84 33 -112 56 -123 43 -13 -16 49 -26 90 -48 90 -49 1 -1 -4 -35 -12 -76 -19 -105 -18 -336 2 -451 80 -463 409 -857 854 -1022 208 -77 511 -107 610 -61 25 12 53 24 62 27 14 5 58 74 58 92 0 3 -9 5 -19 5 -11 0 -23 4 -26 10 -8 13 -175 13 -175 0 0 -6 15 -19 33 -30 17 -11 26 -20 19 -20 -20 0 -65 26 -84 49 -12 14 -29 21 -50 21 -55 -1 -119 -17 -136 -34 -14 -13 -14 -19 -2 -42 15 -27 76 -64 107 -64 10 0 25 -5 33 -11 11 -8 1 -9 -35 -4 -27 4 -65 9 -84 10 -44 5 -92 25 -85 36 3 5 -6 13 -20 19 -31 12 -32 17 -5 41 11 10 18 23 15 28 -4 6 13 13 43 17 28 4 56 13 62 20 6 8 17 14 25 14 7 0 20 9 28 21 8 12 19 18 26 14 6 -4 18 -1 26 6 12 10 20 10 42 -3 23 -14 33 -14 62 -4 21 7 49 9 70 5 19 -4 42 -3 52 2 25 13 30 11 23 -11 -7 -23 -2 -25 26 -10 15 8 21 7 25 -3 3 -9 13 -13 26 -9 17 4 19 1 14 -15 -4 -13 1 -26 14 -38 28 -26 26 -35 -22 -82 -33 -32 -54 -43 -93 -49 -47 -8 -48 -9 -15 -12 78 -7 325 74 465 153 152 85 364 279 445 408 19 31 39 56 44 57 15 0 125 -70 227 -146 131 -98 245 -199 299 -267 24 -31 46 -55 48 -53 7 8 -84 176 -142 261 -35 51 -122 152 -203 236 l-143 146 29 80 c38 102 60 211 71 341 7 96 0 276 -15 334 -6 24 -9 26 -31 16 -15 -7 -24 -20 -24 -34 0 -27 -19 -42 -30 -24 -6 10 -8 10 -12 0 -3 -10 -10 -9 -32 2 l-29 15 22 22 c11 11 21 23 21 25 0 2 -21 4 -47 3 -46 -2 -47 -1 -55 33 -16 80 -22 95 -35 103 -11 7 -11 12 -3 22 9 11 7 16 -9 25 -12 6 -21 20 -21 33 1 21 1 21 14 4 12 -15 17 -16 34 -6 11 7 24 26 29 43 5 17 16 32 26 34 13 3 17 -4 17 -33 0 -25 5 -38 18 -42 9 -4 30 -17 45 -30 46 -38 60 -31 41 20 -28 72 -92 207 -99 207 -3 0 -3 -4 0 -10 15 -24 -14 -7 -45 28 -19 20 -53 51 -75 67 -22 17 -45 35 -52 41 -41 38 -189 125 -245 143 -37 13 -70 27 -73 31 -3 5 -12 7 -20 4 -7 -3 -35 4 -62 16 -28 13 -75 23 -113 26 -101 5 -158 23 -165 51 -6 26 -59 63 -90 63 -11 0 -28 9 -38 20 -9 11 -27 20 -40 20 -13 0 -32 6 -42 14 -17 12 -18 18 -7 40 16 35 53 34 100 -4 59 -46 109 -64 143 -49 18 7 32 22 36 37 9 36 -22 57 -93 66 -86 10 -104 16 -104 36 0 32 -178 39 -349 14z m44 -34 c-10 -16 -82 -50 -105 -50 -12 0 -33 -6 -48 -14 -15 -8 -49 -17 -76 -21 -39 -6 -48 -5 -44 6 2 8 17 15 32 17 22 3 26 7 20 24 -5 18 -3 20 20 16 14 -3 63 3 108 12 104 22 100 22 93 10z m630 -430 c3 -6 3 -20 -1 -32 -6 -21 -7 -21 -20 -3 -8 10 -14 25 -14 32 0 15 26 18 35 3z m-551 -264 c-3 -8 0 -17 5 -21 6 -3 9 -11 5 -16 -4 -6 -14 -3 -25 7 -14 13 -16 20 -8 31 15 17 30 17 23 -1z m971 -71 c38 -38 43 -65 20 -105 -8 -14 -15 -47 -16 -75 -1 -47 -2 -48 -9 -17 -4 18 -16 42 -25 52 -17 19 -17 21 1 41 12 13 14 23 8 27 -6 4 -14 21 -17 37 -4 17 -9 40 -13 53 -9 32 10 27 51 -13z m-787 -63 c2 -7 -3 -12 -12 -12 -9 0 -16 7 -16 16 0 17 22 14 28 -4z m805 -278 c-7 -20 -10 -18 -15 11 -4 20 -2 23 8 14 7 -6 10 -17 7 -25z m-2130 -475 c-6 -6 -17 -8 -24 -3 -9 5 -8 9 7 14 23 9 31 3 17 -11z m1591 -184 c37 -6 49 -13 65 -39 25 -40 36 -117 22 -145 -9 -16 -9 -21 1 -21 7 0 -2 -14 -20 -31 -30 -27 -38 -29 -80 -23 -60 8 -118 33 -160 69 -32 27 -33 31 -27 74 4 25 11 54 17 64 11 21 107 69 124 63 6 -3 32 -8 58 -11z m614 -151 c23 -14 42 -30 42 -36 0 -6 7 -19 16 -29 15 -16 15 -20 0 -41 -9 -12 -16 -32 -16 -44 0 -12 -11 -29 -25 -38 -14 -9 -25 -25 -25 -35 0 -10 -9 -29 -20 -42 -22 -27 -25 -22 -10 16 8 20 7 27 -5 31 -13 5 -13 9 0 34 21 40 19 67 -6 75 -18 6 -20 14 -17 58 3 47 1 51 -22 57 -16 4 -26 14 -28 28 -3 23 -3 23 35 7 21 -9 57 -27 81 -41z m-1164 -60 c3 -8 1 -14 -4 -14 -6 0 -10 -8 -11 -17 0 -15 -2 -15 -9 2 -14 32 -12 55 4 49 8 -3 17 -12 20 -20z m904 -322 c2 -15 -7 -32 -28 -52 -42 -39 -97 -41 -58 -2 10 10 5 15 -20 24 -43 17 -36 31 24 45 64 15 78 12 82 -15z m-628 -302 c12 -8 9 -10 -13 -10 -16 0 -26 4 -22 10 8 12 16 12 35 0z"/>
 <path d="M2253 3016 c32 -26 99 -67 150 -91 145 -68 247 -130 307 -187 l55 -53 -45 48 c-69 74 -177 160 -191 151 -7 -4 -9 -3 -6 4 9 13 -90 75 -105 66 -6 -4 -8 -3 -5 3 4 6 -32 28 -81 51 -131 61 -146 62 -79 8z"/>
 <path d="M3011 2093 c-1 -18 4 -33 9 -33 12 0 12 17 0 45 -7 17 -9 15 -9 -12z"/>
 </g>
<g id="layer104" fill="#b14729" stroke="none">
 <path d="M640 2978 c0 -7 66 -76 146 -153 l147 -140 -13 -37 c-8 -21 -24 -50 -37 -65 -19 -24 -22 -25 -23 -9 0 18 -1 18 -20 1 -11 -10 -20 -27 -20 -38 0 -10 -9 -31 -20 -47 -11 -15 -25 -40 -31 -56 -10 -23 -13 -25 -16 -11 -3 10 5 34 16 53 29 49 26 55 -7 16 -16 -20 -51 -43 -82 -55 -48 -19 -59 -29 -84 -76 -29 -54 -86 -211 -86 -237 0 -10 -6 -11 -25 -4 -14 5 -25 7 -25 5 0 -3 -36 13 -81 35 -113 58 -123 44 -11 -16 50 -27 90 -54 88 -60 -3 -6 3 -11 12 -10 13 1 16 -6 14 -34 -1 -19 -5 -122 -7 -229 -2 -106 -7 -206 -10 -221 -7 -31 17 -100 34 -100 6 0 11 -6 11 -14 0 -27 53 -173 91 -248 51 -101 96 -172 161 -250 83 -100 251 -249 264 -235 13 13 -10 89 -37 123 -37 46 -37 62 -1 34 15 -11 59 -43 97 -71 39 -28 69 -56 67 -63 -4 -23 35 -48 139 -87 94 -35 118 -50 119 -71 0 -11 -34 -10 -66 2 -37 15 -54 -3 -23 -24 23 -14 96 -36 130 -39 9 -1 15 -6 13 -12 -5 -15 23 -48 36 -40 6 4 16 2 23 -3 18 -15 189 -34 201 -22 9 9 -81 27 -114 23 -23 -3 -100 28 -94 38 3 5 -6 14 -20 20 l-26 12 26 26 c14 14 21 27 15 29 -21 7 1 22 32 22 18 0 43 7 57 15 14 8 35 19 48 24 12 6 22 18 22 26 0 12 6 15 20 10 15 -5 20 -2 21 12 0 10 3 13 6 5 2 -6 9 -9 14 -6 6 3 5 11 -2 20 -10 12 -9 13 6 7 14 -5 17 -3 12 10 -3 9 -2 17 2 17 13 0 52 66 49 82 -2 8 8 14 27 16 55 5 75 12 75 27 0 22 -43 36 -78 26 -25 -8 -31 -6 -39 13 -13 29 -8 69 8 75 8 2 25 16 39 31 14 15 45 48 69 74 35 38 41 50 30 57 -8 4 -14 19 -14 31 0 17 -5 22 -20 20 -14 -2 1 17 45 60 36 35 88 89 115 121 l50 58 100 -41 c199 -80 335 -145 335 -159 0 -8 -10 -25 -22 -38 -26 -27 -19 -37 25 -35 64 2 74 -4 72 -43 -1 -19 -7 -40 -13 -47 -6 -7 -12 -29 -14 -48 -3 -31 -9 -38 -72 -71 -38 -20 -92 -40 -119 -44 -41 -5 -58 -14 -91 -47 -23 -22 -66 -53 -98 -68 -31 -15 -78 -42 -103 -59 -45 -30 -48 -31 -61 -14 -13 17 -13 17 -14 0 0 -11 -9 -21 -20 -24 -23 -6 -27 -23 -5 -23 9 0 18 -7 21 -15 4 -8 15 -15 25 -15 13 0 19 -7 19 -23 0 -27 34 -59 55 -51 19 8 19 20 0 28 -22 8 1 43 35 51 53 14 189 84 199 104 7 12 19 21 29 21 9 0 31 9 48 19 17 10 49 22 72 26 37 6 41 5 44 -17 4 -31 40 -36 53 -7 6 12 19 27 30 33 43 23 75 48 75 57 0 5 -10 13 -23 18 -12 5 -28 20 -36 34 -12 23 -11 28 12 59 22 30 28 47 39 113 2 13 -4 21 -17 23 -26 5 -31 11 -39 44 l-6 27 47 -21 c26 -11 79 -39 117 -62 39 -23 96 -54 126 -69 127 -64 396 -278 488 -387 31 -38 58 -67 60 -65 7 7 -85 177 -142 260 -35 52 -122 152 -204 237 -96 98 -141 151 -136 160 4 7 4 10 -1 6 -4 -4 -14 -3 -20 2 -10 8 -8 27 11 85 41 128 64 266 63 372 l-1 98 -39 -80 c-28 -59 -39 -73 -39 -55 -1 23 -2 23 -10 5 -6 -14 -9 -3 -9 40 -2 97 -10 133 -31 128 -28 -7 -33 38 -11 90 11 25 24 48 30 51 23 15 9 24 -27 19 -43 -6 -58 6 -64 52 -2 19 -10 31 -20 33 -14 3 -19 -6 -24 -37 -4 -23 -11 -41 -17 -41 -15 0 -2 140 14 152 11 7 11 11 2 15 -7 2 -13 14 -13 25 0 14 -5 18 -15 14 -9 -3 -15 0 -15 8 0 22 22 80 37 98 16 18 14 24 -26 78 -14 19 -25 43 -26 55 0 11 -7 20 -15 21 -8 0 -55 41 -104 92 -49 51 -97 92 -106 92 -9 0 -25 -6 -35 -14 -16 -12 -17 -17 -6 -44 27 -64 -13 -115 -70 -92 -15 7 -39 26 -52 44 -14 17 -43 41 -66 54 -36 21 -40 21 -34 5 4 -10 11 -21 17 -25 7 -5 4 -8 -6 -8 -10 0 -18 -8 -18 -17 0 -14 -3 -13 -16 5 -20 29 -27 28 -41 -7 -8 -23 -19 -31 -49 -37 -46 -8 -275 13 -289 27 -5 5 -8 38 -7 72 4 73 -14 110 -45 91 -10 -6 -22 -20 -28 -32 -7 -15 -20 -22 -50 -24 -32 -2 -41 -7 -43 -25 -3 -17 3 -22 24 -25 15 -2 36 -16 50 -34 l24 -31 -31 5 c-19 3 -33 12 -36 22 -3 10 -18 20 -34 24 -24 4 -29 11 -29 33 0 37 -9 49 -44 62 -23 9 -35 7 -67 -11 -38 -21 -39 -21 -72 -3 -31 16 -37 17 -64 3 -17 -8 -48 -14 -69 -13 -32 2 -40 7 -42 24 -3 16 3 24 17 28 27 7 27 19 -1 27 -17 4 -20 8 -10 14 10 7 7 13 -12 26 -31 20 -34 36 -6 29 16 -4 19 -2 14 12 -9 22 -41 14 -117 -31 -32 -19 -62 -34 -67 -34 -5 0 -38 -22 -74 -49 l-65 -49 -69 48 c-38 27 -112 90 -165 141 -54 50 -97 85 -97 77z m628 -235 c2 -13 2 -23 0 -23 -2 -1 -32 -3 -68 -6 -36 -3 -86 -12 -112 -19 -54 -16 -62 -7 -20 21 19 13 43 17 83 16 50 -2 57 0 62 19 8 29 51 23 55 -8z m427 -233 c-11 -5 -27 -9 -35 -9 -9 0 -8 4 5 9 11 5 27 9 35 9 9 0 8 -4 -5 -9z m-135 -35 c-46 -18 -64 -17 -25 0 17 8 37 14 45 14 8 0 -1 -7 -20 -14z m170 -55 c-17 -25 -19 -34 -10 -45 17 -21 -16 -33 -36 -13 -18 18 -9 45 17 53 10 4 24 15 30 27 6 11 13 17 16 14 3 -2 -5 -19 -17 -36z m632 25 c57 -17 108 -53 108 -76 0 -14 -6 -15 -46 -8 -51 10 -59 13 -104 52 -27 23 -31 30 -19 38 8 5 14 9 14 9 0 0 21 -7 47 -15z m-866 -30 c-14 -22 -36 -34 -36 -20 0 7 45 51 49 48 2 -1 -4 -14 -13 -28z m1162 -65 c18 -11 39 -35 48 -53 15 -31 15 -36 0 -65 -9 -17 -16 -48 -17 -69 -1 -21 -5 -49 -9 -63 -8 -25 -8 -25 -9 -2 -2 42 -29 77 -100 127 -69 49 -70 51 -70 95 l0 45 29 -56 c33 -64 43 -74 88 -84 25 -5 32 -3 32 9 0 9 -4 16 -9 16 -4 0 -11 17 -14 38 -3 20 -9 47 -13 60 -8 27 2 28 44 2z m-1268 -42 c0 -18 -17 -14 -26 7 -11 22 -10 23 7 12 11 -7 19 -15 19 -19z m706 -56 c-9 -8 -26 10 -26 26 1 15 2 15 15 -2 8 -11 13 -21 11 -24z m284 -17 c14 -42 5 -75 -19 -75 -15 0 -18 8 -17 48 0 26 -3 55 -8 66 -8 16 -7 17 12 7 11 -6 26 -27 32 -46z m-485 25 c0 -22 -39 -19 -43 3 -3 15 1 18 20 15 12 -2 23 -10 23 -18z m-1292 -18 c-20 -21 -28 -20 -20 3 4 8 13 15 22 15 13 0 12 -3 -2 -18z m2015 -104 c7 -7 12 -27 12 -46 0 -26 -4 -33 -17 -30 -20 4 -39 48 -30 72 8 19 19 20 35 4z m-1908 -47 c0 -3 -5 -13 -11 -21 -9 -13 -10 -12 -5 3 3 9 1 17 -4 17 -6 0 -10 4 -10 10 0 5 7 7 15 4 8 -4 15 -9 15 -13z m2010 -10 c0 -23 -16 -36 -25 -21 -9 14 1 40 15 40 5 0 10 -9 10 -19z m-81 -58 c10 9 11 8 6 -5 -9 -22 11 -24 23 -2 7 13 10 13 20 1 9 -10 9 -22 1 -46 -10 -28 -15 -31 -54 -31 -41 0 -43 1 -49 35 -9 44 -1 58 23 45 12 -6 22 -5 30 3z m-936 -434 c-5 -19 -2 -20 35 -18 23 2 47 -3 56 -10 27 -22 18 -32 -21 -25 -45 9 -123 42 -123 53 0 14 13 21 36 21 18 0 21 -4 17 -21z m-1143 -20 c16 -29 12 -79 -5 -79 -9 0 -18 8 -21 18 -3 9 -11 27 -16 39 -22 46 18 67 42 22z m1235 -79 c9 7 15 8 20 1 7 -13 -39 -25 -61 -17 -13 5 -14 9 -3 22 11 14 13 14 22 -1 6 -12 12 -13 22 -5z m241 4 c28 -7 30 -17 8 -38 -20 -21 -34 -20 -34 1 0 9 -8 25 -17 36 -17 20 -17 20 0 14 11 -4 30 -10 43 -13z m-146 -16 c0 -7 -7 -21 -15 -32 -13 -17 -15 -17 -30 -2 -10 9 -12 16 -5 16 6 0 18 7 26 15 19 18 24 19 24 3z m37 -78 c13 -17 30 -27 35 -23 7 4 8 1 3 -8 -13 -23 -38 -49 -46 -49 -13 0 -39 56 -39 85 0 33 16 32 47 -5z m-312 -286 c15 -14 24 -28 21 -31 -4 -4 -12 -1 -18 5 -17 17 -28 15 -28 -5 -1 -15 -2 -16 -9 -3 -34 60 -15 79 34 34z"/>
 <path d="M1680 2984 c-14 -2 -62 -9 -108 -15 -93 -13 -99 -24 -14 -24 46 0 64 -5 92 -27 19 -15 48 -31 63 -37 16 -6 26 -15 22 -20 -11 -18 27 -29 68 -19 56 12 57 13 44 53 -8 26 -7 39 1 47 8 8 6 16 -10 30 -20 17 -84 22 -158 12z"/>
 <path d="M1372 2926 c-42 -12 -41 -26 2 -26 18 0 39 -6 45 -14 13 -16 43 -24 131 -37 30 -4 67 -11 83 -15 15 -3 27 -2 27 3 0 12 -135 63 -165 63 -12 0 -36 8 -56 18 -27 13 -42 15 -67 8z"/>
 <path d="M2380 2755 c0 -8 5 -15 10 -15 6 0 10 7 10 15 0 8 -4 15 -10 15 -5 0 -10 -7 -10 -15z"/>
 <path d="M2810 2316 c0 -9 7 -16 16 -16 17 0 14 22 -4 28 -7 2 -12 -3 -12 -12z"/>
 <path d="M3029 1981 c-3 -36 0 -51 8 -51 9 0 11 13 6 48 -8 62 -10 63 -14 3z"/>
 <path d="M3092 1800 c0 -19 2 -27 5 -17 2 9 2 25 0 35 -3 9 -5 1 -5 -18z"/>
 <path d="M2025 1029 c-10 -15 1 -23 20 -15 9 3 13 10 10 16 -8 13 -22 13 -30 -1z"/>
 <path d="M1825 761 c-8 -15 3 -31 21 -31 9 0 14 7 12 17 -4 20 -24 28 -33 14z"/>
 <path d="M1690 630 c0 -5 -7 -7 -15 -4 -8 3 -30 1 -50 -6 -77 -25 -22 -99 90 -120 39 -7 74 -19 78 -26 12 -21 36 -17 32 4 -2 14 4 18 33 20 64 4 115 14 128 26 11 12 44 70 44 79 0 8 -64 19 -142 24 -87 5 -99 -5 -45 -37 17 -11 26 -20 19 -20 -19 0 -70 28 -79 44 -10 16 -93 31 -93 16z"/>
 </g>
<g id="layer105" fill="#fd2a34" stroke="none">
 <path d="M640 2978 c0 -14 347 -348 488 -469 l72 -62 -21 -23 c-12 -13 -26 -21 -30 -18 -15 9 -10 41 7 48 18 7 10 26 -11 26 -7 0 -15 -10 -17 -22 -2 -14 -10 -23 -19 -22 -9 1 -15 -7 -15 -20 1 -11 -3 -21 -9 -21 -5 0 -16 -4 -22 -8 -7 -5 -13 -6 -13 -4 0 3 -20 -1 -45 -9 -34 -10 -45 -10 -46 -1 -1 7 -2 19 -3 27 0 8 -10 16 -21 18 -11 2 -27 11 -37 19 -14 13 -19 10 -48 -32 -39 -57 -104 -187 -120 -243 -7 -23 -18 -42 -23 -42 -5 0 -4 -7 3 -14 18 -23 9 -61 -15 -59 -56 4 -212 61 -328 120 -38 19 -73 33 -79 31 -6 -2 70 -48 168 -102 98 -55 189 -105 202 -113 22 -13 22 -17 22 -199 0 -174 -1 -188 -21 -212 l-21 -27 36 -3 c20 -2 34 -7 31 -11 -2 -5 6 -39 19 -77 71 -208 159 -324 271 -358 50 -15 70 -29 120 -82 33 -35 77 -70 97 -79 72 -29 186 -15 311 39 22 10 36 12 32 7 -4 -7 5 -11 21 -11 26 0 27 -1 10 -19 -10 -11 -15 -25 -11 -30 8 -14 -9 -30 -65 -60 -54 -29 -62 -39 -55 -68 3 -13 1 -23 -5 -23 -5 0 -10 -4 -10 -9 0 -9 115 -37 175 -43 28 -3 30 -1 33 35 3 30 7 37 18 33 11 -4 14 -1 9 13 -6 20 17 36 48 32 9 -1 17 4 17 13 0 22 37 39 94 46 27 3 51 10 53 17 7 20 -40 25 -80 8 -29 -12 -42 -13 -58 -4 -15 7 -29 7 -51 0 -35 -12 -98 4 -98 24 0 30 65 66 151 84 51 11 61 18 119 83 55 61 61 72 46 80 -11 6 -15 16 -10 30 5 17 3 19 -17 13 -15 -5 20 38 95 116 65 68 122 125 126 127 29 11 558 -231 768 -351 220 -125 454 -307 552 -430 24 -31 46 -55 48 -53 7 8 -84 176 -142 261 -87 129 -341 385 -527 531 l-150 119 47 5 47 5 46 129 c25 71 47 121 49 112 5 -26 22 -18 22 10 0 24 2 25 17 13 15 -13 16 -9 9 52 -5 54 -3 75 13 112 11 25 24 48 30 51 21 13 11 26 -14 20 -46 -11 -72 2 -79 42 -8 42 -29 41 -34 -2 -4 -29 -19 -47 -34 -38 -12 7 -10 124 2 124 6 0 10 6 10 14 0 8 6 17 13 20 10 5 10 7 0 12 -7 3 -13 13 -13 21 0 13 -3 13 -15 3 -10 -9 -15 -9 -15 -1 0 6 -9 11 -19 11 -24 0 -51 -64 -51 -120 0 -31 3 -38 15 -34 11 5 15 -1 15 -20 0 -28 -30 -50 -38 -28 -2 7 -8 10 -13 6 -5 -3 -9 11 -9 30 0 49 -16 80 -53 101 -18 10 -49 32 -69 48 -35 28 -38 34 -38 81 l1 51 35 -67 c39 -73 61 -89 82 -61 13 18 12 26 -8 103 -14 51 -140 186 -182 196 -18 3 -46 21 -63 39 -34 36 -105 56 -105 29 0 -20 -17 -17 -33 7 -15 21 -15 21 -21 1 -13 -40 -47 -71 -96 -87 -28 -9 -50 -21 -50 -26 0 -12 1 -12 41 5 31 12 39 11 97 -15 34 -15 62 -33 62 -38 0 -13 -402 -7 -465 6 -36 8 -40 11 -37 36 l3 27 -38 -14 c-21 -8 -62 -19 -91 -25 -71 -15 -122 -37 -122 -54 0 -25 -27 -70 -33 -55 -4 9 -6 7 -6 -4 -1 -10 -5 -18 -10 -18 -5 0 -7 10 -4 23 5 22 5 22 -10 2 -15 -18 -16 -19 -17 -2 0 11 11 22 30 28 16 6 32 19 35 30 9 26 43 42 155 69 52 13 99 27 105 32 13 12 -8 29 -46 37 -34 7 -53 31 -24 31 9 0 15 6 12 13 -2 8 -24 12 -63 12 -79 -1 -214 -45 -304 -101 l-72 -45 -71 52 c-167 121 -375 288 -458 367 -49 46 -89 78 -89 70z m1106 -547 c-17 -17 -25 -37 -24 -52 2 -18 -2 -24 -16 -24 -10 0 -24 8 -30 17 -9 15 -3 24 33 58 47 44 79 45 37 1z m644 10 c48 -21 80 -48 80 -68 0 -20 -4 -22 -32 -17 -68 11 -77 15 -116 48 -31 25 -38 36 -29 45 11 11 63 6 97 -8z m-985 -31 c-11 -5 -27 -9 -35 -9 -9 0 -8 4 5 9 11 5 27 9 35 9 9 0 8 -4 -5 -9z m-214 -41 c-69 -31 -130 -44 -143 -31 -7 7 -8 15 -3 19 4 5 10 3 12 -3 5 -14 88 2 118 22 11 8 29 14 40 13 13 0 4 -7 -24 -20z m193 -48 c13 -14 14 -21 6 -26 -9 -6 -9 -9 0 -15 9 -6 6 -10 -9 -15 -29 -9 -35 -2 -19 24 11 18 10 23 -7 35 -16 13 -17 15 -4 16 9 0 24 -9 33 -19z m-184 -11 c-34 -11 -60 -11 -35 0 11 5 29 8 40 8 16 0 15 -2 -5 -8z m689 -29 c17 -11 7 -41 -13 -41 -19 0 -29 17 -22 35 6 17 15 18 35 6z m205 -7 c4 -9 4 -19 1 -22 -6 -6 -35 18 -35 29 0 16 28 10 34 -7z m275 -10 c24 -31 28 -86 6 -104 -23 -19 -38 -2 -32 38 4 21 1 45 -9 63 -13 25 -13 29 0 29 8 0 24 -12 35 -26z m259 -139 c18 -40 15 -65 -8 -65 -26 0 -54 43 -45 70 9 28 39 25 53 -5z m27 -97 c-5 -18 -4 -20 4 -8 9 13 12 13 26 -1 12 -12 13 -21 4 -47 -10 -29 -15 -32 -54 -32 -39 0 -44 3 -54 31 -14 39 1 61 34 53 15 -4 24 0 28 10 10 24 19 19 12 -6z m-1810 -128 c7 -12 -19 -53 -28 -43 -4 3 -7 17 -7 30 0 23 23 32 35 13z m1785 -55 c-7 -8 -10 -20 -8 -27 3 -7 2 -22 -3 -33 -6 -15 -8 -9 -8 22 -1 36 5 47 28 52 2 1 -2 -6 -9 -14z m-740 -60 c22 -20 15 -65 -11 -65 -10 0 -26 11 -35 25 -16 24 -16 27 2 40 24 18 24 18 44 0z m528 -143 c61 -43 89 -68 85 -78 -3 -9 1 -14 12 -14 18 0 111 -63 220 -150 94 -75 106 -86 75 -68 -14 8 -74 44 -135 79 -60 35 -112 67 -113 71 -2 5 -8 6 -12 3 -5 -3 -55 14 -112 38 -57 25 -113 47 -125 51 -19 6 -23 14 -23 52 0 48 -2 49 -31 34 -25 -14 -24 -7 3 34 26 40 18 43 156 -52z m-220 8 c-7 -11 -22 -20 -33 -20 -19 1 -19 2 4 20 30 26 45 26 29 0z m-439 -51 c42 -15 59 -24 50 -30 -11 -6 -10 -9 4 -15 14 -5 15 -9 6 -20 -6 -8 -18 -14 -25 -14 -8 0 -14 -8 -14 -17 0 -13 3 -14 12 -5 16 16 25 15 32 -3 4 -11 -3 -19 -21 -26 -51 -19 -86 16 -45 47 16 13 16 13 -1 14 -22 0 -117 47 -117 58 0 14 23 32 40 32 9 0 44 -10 79 -21z m111 -80 c0 -18 4 -28 10 -24 16 10 24 -23 10 -40 -10 -12 -9 -15 4 -15 9 0 21 -11 27 -24 6 -13 20 -28 31 -33 19 -8 19 -9 -2 -36 -12 -15 -27 -27 -34 -27 -17 0 -39 42 -40 79 -1 21 -6 31 -16 31 -17 0 -40 19 -40 32 0 4 9 8 20 8 17 0 18 3 10 26 -14 36 -12 54 5 54 10 0 15 -10 15 -31z m197 -33 c2 -1 -11 -18 -27 -37 -26 -31 -29 -32 -30 -12 0 12 -11 35 -25 51 -14 17 -25 33 -25 36 0 5 100 -30 107 -38z m-475 -348 c51 -30 69 -69 24 -52 -11 4 -16 1 -16 -10 0 -24 -15 -19 -28 9 -12 26 -16 65 -7 65 3 0 15 -6 27 -12z m-162 -156 c-75 -31 -209 -25 -238 11 -8 9 7 12 61 12 46 1 83 6 101 16 27 15 32 14 70 -4 l41 -20 -35 -15z"/>
 <path d="M1710 1590 c0 -5 12 -10 28 -10 21 0 24 2 12 10 -20 13 -40 13 -40 0z"/>
 <path d="M1270 2806 c0 -9 -7 -16 -15 -16 -20 0 -19 -6 5 -30 15 -15 21 -17 27 -6 4 7 13 15 20 17 8 3 3 13 -12 28 -20 18 -25 20 -25 7z"/>
 <path d="M1790 2748 c-16 -14 -21 -22 -12 -25 25 -9 11 -19 -22 -15 -35 4 -76 -11 -76 -28 0 -6 11 -10 25 -10 16 0 34 -12 52 -35 39 -49 69 -47 84 4 13 43 6 103 -14 119 -8 7 -19 4 -37 -10z"/>
 <path d="M2380 2755 c0 -8 5 -15 10 -15 6 0 10 7 10 15 0 8 -4 15 -10 15 -5 0 -10 -7 -10 -15z"/>
 <path d="M1382 2656 c1 -10 8 -17 13 -17 15 1 12 24 -3 29 -9 3 -13 -2 -10 -12z"/>
 <path d="M2270 2651 c0 -9 24 -21 43 -21 6 0 2 7 -9 15 -22 17 -34 19 -34 6z"/>
 <path d="M1230 2626 c0 -9 7 -16 16 -16 9 0 14 5 12 12 -6 18 -28 21 -28 4z"/>
 <path d="M2660 2540 c0 -6 -8 -14 -17 -18 -17 -6 -16 -8 3 -27 l20 -21 15 21 c14 18 13 22 -3 38 -10 9 -18 12 -18 7z"/>
 <path d="M964 2526 c-8 -22 3 -33 18 -18 9 9 9 15 0 24 -9 9 -13 7 -18 -6z"/>
 <path d="M1940 2525 c0 -9 5 -15 11 -13 6 2 11 8 11 13 0 5 -5 11 -11 13 -6 2 -11 -4 -11 -13z"/>
 <path d="M2726 2523 c-11 -11 -6 -23 9 -23 8 0 15 4 15 9 0 13 -16 22 -24 14z"/>
 <path d="M910 2475 c0 -8 5 -15 10 -15 6 0 10 7 10 15 0 8 -4 15 -10 15 -5 0 -10 -7 -10 -15z"/>
 <path d="M2620 2450 c0 -5 7 -10 15 -10 8 0 15 5 15 10 0 6 -7 10 -15 10 -8 0 -15 -4 -15 -10z"/>
 <path d="M780 2416 c0 -9 7 -16 16 -16 17 0 14 22 -4 28 -7 2 -12 -3 -12 -12z"/>
 <path d="M2747 2344 c-8 -8 1 -24 14 -24 5 0 9 7 9 15 0 15 -12 20 -23 9z"/>
 <path d="M2816 2323 c-11 -11 -6 -23 9 -23 8 0 15 4 15 9 0 13 -16 22 -24 14z"/>
 <path d="M2627 2243 c-12 -11 -8 -23 8 -23 8 0 15 7 15 15 0 16 -12 20 -23 8z"/>
 <path d="M2025 1029 c-10 -15 1 -23 20 -15 9 3 13 10 10 16 -8 13 -22 13 -30 -1z"/>
 <path d="M1513 934 c-7 -19 2 -28 22 -21 19 8 19 23 0 31 -9 3 -18 -1 -22 -10z"/>
 <path d="M1832 756 c1 -10 8 -17 13 -17 15 1 12 24 -3 29 -9 3 -13 -2 -10 -12z"/>
 <path d="M2019 740 c-14 -15 -14 -19 2 -38 14 -18 18 -19 23 -7 3 8 12 15 21 15 8 0 15 5 15 10 0 6 -7 10 -15 10 -7 0 -18 6 -22 13 -6 11 -11 10 -24 -3z"/>
 <path d="M1675 739 c-10 -15 1 -23 20 -15 9 3 13 10 10 16 -8 13 -22 13 -30 -1z"/>
 <path d="M1476 671 c-3 -5 1 -12 10 -15 27 -10 44 -7 44 9 0 16 -45 21 -54 6z"/>
 <path d="M1455 640 c-3 -5 -13 -6 -23 -3 -12 4 -14 3 -7 -5 6 -5 19 -12 30 -14 12 -2 19 -10 17 -21 -4 -22 17 -22 33 0 11 14 9 20 -10 35 -26 21 -32 22 -40 8z"/>
 <path d="M1690 629 c0 -6 -7 -8 -17 -5 -27 11 -83 -13 -83 -35 0 -13 7 -19 21 -19 18 0 19 -3 10 -14 -17 -20 17 -41 92 -56 75 -15 249 0 273 24 11 12 44 70 44 79 0 8 -64 19 -142 24 -87 5 -99 -5 -45 -37 17 -11 26 -20 19 -20 -19 0 -70 28 -79 44 -10 17 -93 31 -93 15z"/>
 <path d="M1475 539 c2 -30 11 -35 80 -45 28 -4 28 -3 -8 14 -22 9 -38 22 -37 27 1 5 -7 12 -18 16 -14 5 -18 3 -17 -12z"/>
 </g>
<g id="layer106" fill="#e56030" stroke="none">
 <path d="M670 2955 c19 -19 36 -35 39 -35 3 0 -10 16 -29 35 -19 19 -36 35 -39 35 -3 0 10 -16 29 -35z"/>
 <path d="M1270 2806 c0 -9 -7 -16 -15 -16 -20 0 -19 -6 5 -30 15 -15 21 -17 27 -6 4 7 13 15 20 17 8 3 3 13 -12 28 -20 18 -25 20 -25 7z"/>
 <path d="M1790 2748 c-16 -14 -21 -22 -12 -25 25 -9 11 -19 -22 -15 -35 4 -76 -11 -76 -28 0 -6 11 -10 25 -10 16 0 34 -12 52 -35 39 -49 69 -47 84 4 13 43 6 103 -14 119 -8 7 -19 4 -37 -10z"/>
 <path d="M2380 2755 c0 -8 5 -15 10 -15 6 0 10 7 10 15 0 8 -4 15 -10 15 -5 0 -10 -7 -10 -15z"/>
 <path d="M1382 2656 c1 -10 8 -17 13 -17 15 1 12 24 -3 29 -9 3 -13 -2 -10 -12z"/>
 <path d="M2270 2651 c0 -9 24 -21 43 -21 6 0 2 7 -9 15 -22 17 -34 19 -34 6z"/>
 <path d="M1230 2626 c0 -9 7 -16 16 -16 9 0 14 5 12 12 -6 18 -28 21 -28 4z"/>
 <path d="M1520 2616 c-99 -30 -133 -46 -204 -91 l-60 -38 32 -28 c18 -16 39 -29 47 -29 8 0 15 -5 15 -11 0 -7 13 -9 38 -5 36 6 36 6 9 -6 l-27 -13 110 -75 c61 -41 122 -85 136 -97 14 -13 29 -23 33 -23 5 0 46 -25 92 -57 206 -139 258 -173 263 -173 3 0 28 -15 54 -32 27 -18 88 -59 135 -90 48 -32 87 -60 87 -62 0 -3 -9 -21 -21 -40 -22 -38 -37 -50 -19 -15 16 28 6 37 -108 105 -96 57 -149 90 -312 196 -170 111 -197 128 -305 202 -83 55 -113 71 -123 63 -10 -8 -10 -12 -1 -18 8 -4 4 -9 -10 -14 -30 -9 -35 -2 -19 25 11 18 11 22 -5 31 -9 6 -15 14 -12 19 9 15 -61 59 -86 54 -18 -3 -20 -3 -6 4 16 7 11 13 -30 42 -60 43 -90 49 -95 18 -2 -13 -10 -23 -19 -22 -8 1 -15 -6 -15 -15 1 -9 -2 -16 -5 -16 -3 0 -13 -6 -22 -14 -10 -7 -17 -11 -17 -8 0 3 -20 -1 -45 -9 -34 -10 -45 -10 -46 -1 -1 7 -2 19 -3 27 0 8 -10 16 -21 18 -11 2 -27 11 -37 19 -14 13 -19 10 -48 -32 -39 -57 -104 -187 -120 -243 -7 -23 -18 -42 -24 -42 -6 0 -5 -5 2 -12 17 -17 15 -57 -2 -64 -8 -3 -24 -1 -35 5 -30 16 -38 -6 -12 -33 23 -25 28 -41 9 -30 -10 6 -10 4 0 -7 9 -9 12 -64 12 -197 0 -172 -1 -186 -21 -210 l-21 -27 36 -3 c20 -2 34 -7 31 -11 -2 -5 6 -39 19 -77 71 -208 159 -324 271 -358 50 -15 70 -29 120 -82 33 -35 77 -70 97 -79 72 -29 186 -15 311 39 22 10 36 12 32 7 -4 -7 5 -11 21 -11 26 0 27 -1 10 -19 -10 -11 -15 -25 -11 -30 8 -14 -9 -30 -65 -60 -54 -29 -62 -39 -55 -69 3 -12 1 -22 -5 -22 -5 0 -10 -4 -10 -9 0 -9 115 -37 175 -43 28 -3 30 -1 33 35 3 30 7 37 18 33 11 -4 14 -1 9 13 -6 20 17 36 48 32 9 -1 17 4 17 13 0 22 37 39 94 46 27 3 51 10 53 17 7 20 -40 25 -80 8 -29 -12 -42 -13 -58 -4 -15 7 -29 7 -51 0 -35 -12 -98 4 -98 24 0 30 65 66 151 84 51 11 61 18 119 83 55 61 61 72 46 80 -11 6 -15 16 -10 30 5 17 3 19 -18 13 -15 -5 7 23 68 86 50 52 117 126 149 164 32 39 66 73 74 77 25 10 79 9 86 -2 16 -25 25 -5 25 55 0 36 -3 65 -6 65 -3 0 -14 -5 -25 -10 -25 -14 -24 -6 4 35 13 19 27 32 32 27 5 -4 5 -2 2 4 -4 6 -1 19 7 29 12 16 15 16 54 -9 23 -14 46 -26 51 -26 5 0 11 -3 13 -8 4 -9 156 -125 197 -150 22 -13 42 -16 82 -12 l52 5 46 129 c25 71 47 121 49 112 5 -26 22 -18 22 10 0 24 2 25 17 13 15 -13 16 -9 9 52 -5 54 -3 75 13 112 11 25 24 48 30 51 21 13 11 26 -14 20 -46 -11 -72 2 -79 42 -8 42 -29 41 -34 -2 -4 -29 -19 -47 -34 -38 -12 7 -10 124 2 124 6 0 10 6 10 14 0 8 6 17 13 20 10 5 10 7 0 12 -7 3 -13 13 -13 21 0 13 -3 13 -15 3 -10 -9 -15 -9 -15 -1 0 6 -9 11 -19 11 -24 0 -51 -64 -51 -120 0 -31 3 -38 15 -34 11 5 15 -1 15 -20 0 -28 -30 -50 -38 -28 -2 7 -8 10 -13 6 -5 -3 -9 11 -9 30 0 49 -16 80 -53 101 -18 10 -49 32 -69 48 -35 28 -38 34 -38 81 l1 51 35 -67 c39 -73 61 -89 82 -61 13 18 12 26 -8 103 -14 51 -140 186 -182 196 -18 3 -46 21 -63 39 -34 36 -105 56 -105 29 0 -20 -17 -17 -33 7 -15 21 -15 21 -21 1 -13 -40 -47 -71 -96 -87 -28 -9 -50 -21 -50 -26 0 -12 1 -12 41 5 31 12 39 11 97 -15 34 -15 62 -33 62 -38 0 -13 -402 -7 -465 6 -36 8 -40 11 -37 36 l3 27 -38 -14 c-21 -8 -62 -19 -91 -25 -71 -15 -122 -37 -122 -54 0 -25 -27 -70 -33 -55 -4 9 -6 7 -6 -4 -1 -10 -5 -18 -10 -18 -5 0 -7 10 -4 23 5 22 5 22 -10 2 -15 -18 -16 -19 -17 -2 0 11 11 22 30 28 16 6 32 19 35 30 9 26 43 42 155 69 52 13 99 27 105 32 13 12 -8 29 -46 37 -34 7 -53 31 -24 31 9 0 15 5 13 12 -7 21 -99 18 -178 -6z m-341 -192 c-23 -25 -39 -23 -39 3 0 23 32 44 48 31 10 -9 8 -16 -9 -34z m567 7 c-17 -17 -25 -37 -24 -52 2 -18 -2 -24 -16 -24 -10 0 -24 8 -30 17 -9 15 -3 24 33 58 47 44 79 45 37 1z m644 10 c48 -21 80 -48 80 -68 0 -20 -4 -22 -32 -17 -68 11 -77 15 -116 48 -31 25 -38 36 -29 45 11 11 63 6 97 -8z m-1199 -72 c-69 -31 -130 -44 -143 -31 -7 7 -8 15 -3 19 4 5 10 3 12 -3 5 -14 88 2 118 22 11 8 29 14 40 13 13 0 4 -7 -24 -20z m9 -59 c-34 -11 -60 -11 -35 0 11 5 29 8 40 8 16 0 15 -2 -5 -8z m689 -29 c17 -11 7 -41 -13 -41 -19 0 -29 17 -22 35 6 17 15 18 35 6z m205 -7 c4 -9 4 -19 1 -22 -6 -6 -35 18 -35 29 0 16 28 10 34 -7z m275 -10 c24 -31 28 -86 6 -104 -23 -19 -38 -2 -32 38 4 21 1 45 -9 63 -13 25 -13 29 0 29 8 0 24 -12 35 -26z m259 -139 c18 -40 15 -65 -8 -65 -26 0 -54 43 -45 70 9 28 39 25 53 -5z m27 -97 c-5 -18 -4 -20 4 -8 9 13 12 13 26 -1 12 -12 13 -21 4 -47 -10 -29 -15 -32 -54 -32 -39 0 -44 3 -54 31 -14 39 1 61 34 53 15 -4 24 0 28 10 10 24 19 19 12 -6z m-1768 -65 c2 -5 -7 -21 -21 -36 -13 -14 -22 -28 -19 -31 3 -2 -1 -14 -9 -25 -8 -12 -18 -18 -21 -14 -12 11 -8 51 6 56 6 2 -5 9 -25 16 -41 14 -43 17 -28 55 l9 25 52 -18 c29 -10 54 -22 56 -28z m355 -84 l98 -23 15 -52 c23 -81 23 -82 -28 -61 -18 8 -71 26 -119 41 l-88 27 0 51 c0 36 4 49 13 45 6 -2 56 -15 109 -28z m1388 -34 c-7 -8 -10 -20 -8 -27 3 -7 2 -22 -3 -33 -6 -15 -8 -9 -8 22 -1 36 5 47 28 52 2 1 -2 -6 -9 -14z m-1137 -25 c20 0 19 -10 -11 -79 l-15 -36 -12 35 c-6 19 -15 48 -19 64 -6 26 -5 28 16 22 13 -3 31 -6 41 -6z m397 -35 c14 -13 15 -23 7 -58 -19 -86 42 -159 151 -179 l61 -11 -47 -60 c-45 -60 -46 -60 -53 -34 -13 50 -58 91 -124 113 -38 13 -68 18 -76 13 -11 -6 -10 -9 4 -15 14 -5 15 -9 6 -20 -6 -8 -18 -14 -25 -14 -8 0 -14 -8 -14 -17 0 -13 3 -14 12 -5 16 16 25 15 32 -3 4 -11 -3 -19 -21 -26 -51 -19 -86 16 -45 47 16 13 16 13 -1 14 -29 0 -119 50 -114 63 2 7 14 18 28 24 18 10 20 13 7 13 -16 0 -16 4 3 58 12 31 25 61 29 66 5 5 29 1 56 -8 26 -9 56 -16 66 -16 16 0 17 3 8 21 -9 17 -8 23 7 35 23 17 23 17 43 -1z m308 -135 c-16 -26 -47 -34 -93 -26 -31 6 -53 22 -43 31 2 2 22 -1 44 -7 34 -9 45 -9 65 5 32 23 42 21 27 -3z m-328 -131 c0 -18 4 -28 10 -24 16 10 24 -23 10 -40 -10 -12 -9 -15 4 -15 9 0 21 -11 27 -24 6 -13 20 -28 31 -33 19 -8 19 -9 -2 -36 -12 -15 -27 -27 -34 -27 -17 0 -39 42 -40 79 -1 21 -6 31 -16 31 -17 0 -40 19 -40 32 0 4 9 8 20 8 17 0 18 3 10 26 -14 36 -12 54 5 54 10 0 15 -10 15 -31z m-278 -381 c51 -30 69 -69 24 -52 -11 4 -16 1 -16 -10 0 -24 -15 -19 -28 9 -12 26 -16 65 -7 65 3 0 15 -6 27 -12z m-162 -156 c-75 -31 -209 -25 -238 11 -8 9 7 12 61 12 46 1 83 6 101 16 27 15 32 14 70 -4 l41 -20 -35 -15z"/>
 <path d="M1710 1590 c0 -5 12 -10 28 -10 21 0 24 2 12 10 -20 13 -40 13 -40 0z"/>
 <path d="M2660 2540 c0 -6 -8 -14 -17 -18 -17 -6 -16 -8 3 -27 l20 -21 15 21 c14 18 13 22 -3 38 -10 9 -18 12 -18 7z"/>
 <path d="M964 2526 c-8 -22 3 -33 18 -18 9 9 9 15 0 24 -9 9 -13 7 -18 -6z"/>
 <path d="M1940 2525 c0 -9 5 -15 11 -13 6 2 11 8 11 13 0 5 -5 11 -11 13 -6 2 -11 -4 -11 -13z"/>
 <path d="M2726 2523 c-11 -11 -6 -23 9 -23 8 0 15 4 15 9 0 13 -16 22 -24 14z"/>
 <path d="M910 2475 c0 -8 5 -15 10 -15 6 0 10 7 10 15 0 8 -4 15 -10 15 -5 0 -10 -7 -10 -15z"/>
 <path d="M2620 2450 c0 -5 7 -10 15 -10 8 0 15 5 15 10 0 6 -7 10 -15 10 -8 0 -15 -4 -15 -10z"/>
 <path d="M780 2416 c0 -9 7 -16 16 -16 17 0 14 22 -4 28 -7 2 -12 -3 -12 -12z"/>
 <path d="M2747 2344 c-8 -8 1 -24 14 -24 5 0 9 7 9 15 0 15 -12 20 -23 9z"/>
 <path d="M2816 2323 c-11 -11 -6 -23 9 -23 8 0 15 4 15 9 0 13 -16 22 -24 14z"/>
 <path d="M2627 2243 c-12 -11 -8 -23 8 -23 8 0 15 7 15 15 0 16 -12 20 -23 8z"/>
 <path d="M2506 1573 c-11 -11 -6 -23 10 -23 9 0 39 -16 68 -36 28 -20 40 -26 26 -14 -98 84 -95 82 -104 73z"/>
 <path d="M2025 1029 c-10 -15 1 -23 20 -15 9 3 13 10 10 16 -8 13 -22 13 -30 -1z"/>
 <path d="M1513 934 c-7 -19 2 -28 22 -21 19 8 19 23 0 31 -9 3 -18 -1 -22 -10z"/>
 <path d="M1832 756 c1 -10 8 -17 13 -17 15 1 12 24 -3 29 -9 3 -13 -2 -10 -12z"/>
 <path d="M2019 740 c-14 -15 -14 -19 2 -38 14 -18 18 -19 23 -7 3 8 12 15 21 15 8 0 15 5 15 10 0 6 -7 10 -15 10 -7 0 -18 6 -22 13 -6 11 -11 10 -24 -3z"/>
 <path d="M1675 739 c-10 -15 1 -23 20 -15 9 3 13 10 10 16 -8 13 -22 13 -30 -1z"/>
 <path d="M1476 671 c-3 -5 1 -12 10 -15 27 -10 44 -7 44 9 0 16 -45 21 -54 6z"/>
 <path d="M1455 640 c-3 -5 -13 -6 -23 -3 -12 4 -14 3 -7 -5 6 -5 19 -12 30 -14 12 -2 19 -10 17 -21 -4 -22 17 -22 33 0 11 14 9 20 -10 35 -26 21 -32 22 -40 8z"/>
 <path d="M1690 629 c0 -6 -7 -8 -17 -5 -27 11 -83 -13 -83 -35 0 -13 7 -19 21 -19 18 0 19 -3 10 -14 -17 -20 17 -41 92 -56 75 -15 249 0 273 24 11 12 44 70 44 79 0 8 -64 19 -142 24 -87 5 -99 -5 -45 -37 17 -11 26 -20 19 -20 -19 0 -70 28 -79 44 -10 17 -93 31 -93 15z"/>
 <path d="M1475 539 c2 -30 11 -35 80 -45 28 -4 28 -3 -8 14 -22 9 -38 22 -37 27 1 5 -7 12 -18 16 -14 5 -18 3 -17 -12z"/>
 </g>
<g id="layer107" fill="#ff3b45" stroke="none">
 <path d="M670 2955 c19 -19 36 -35 39 -35 3 0 -10 16 -29 35 -19 19 -36 35 -39 35 -3 0 10 -16 29 -35z"/>
 <path d="M1270 2806 c0 -9 -7 -16 -15 -16 -20 0 -19 -6 5 -30 15 -15 21 -17 27 -6 4 7 13 15 20 17 8 3 3 13 -12 28 -20 18 -25 20 -25 7z"/>
 <path d="M2380 2755 c0 -8 5 -15 10 -15 6 0 10 7 10 15 0 8 -4 15 -10 15 -5 0 -10 -7 -10 -15z"/>
 <path d="M1380 2656 c0 -9 7 -16 16 -16 9 0 14 5 12 12 -6 18 -28 21 -28 4z"/>
 <path d="M1230 2626 c0 -9 7 -16 16 -16 9 0 14 5 12 12 -6 18 -28 21 -28 4z"/>
 <path d="M2225 2572 c-42 -7 -165 -55 -165 -64 0 -6 8 -7 18 -3 50 22 200 56 225 51 16 -3 48 -15 72 -25 51 -23 80 -70 92 -153 12 -78 6 -107 -23 -118 -29 -11 -31 -30 -5 -37 19 -5 19 -6 -1 -76 -22 -80 -33 -98 -54 -90 -18 7 -18 -6 0 -26 13 -14 11 -24 -14 -76 -24 -49 -30 -55 -30 -33 0 34 -57 95 -113 120 -52 24 -151 33 -202 19 -48 -13 -60 -5 -17 11 18 7 32 15 32 19 0 13 -31 19 -50 9 -11 -6 -29 -14 -40 -20 -12 -6 -21 -6 -25 0 -11 17 -23 11 -28 -16 -4 -21 3 -30 48 -59 46 -29 58 -32 89 -25 38 8 101 -1 119 -19 14 -14 1 -40 -25 -50 -20 -7 -14 -14 65 -64 48 -31 87 -58 87 -61 0 -8 -26 -52 -64 -108 -34 -51 -43 -58 -72 -58 -53 0 -86 17 -82 42 2 17 21 29 82 55 44 18 84 37 89 42 5 5 -12 22 -44 43 -91 58 -153 93 -146 82 4 -7 -10 -16 -32 -23 -60 -18 -97 -58 -111 -122 -10 -46 -10 -60 3 -90 21 -51 74 -88 145 -101 l61 -11 -44 -56 c-163 -210 -453 -442 -621 -497 -97 -32 -197 -31 -241 2 -62 47 -68 64 -68 202 1 120 3 133 38 237 21 61 44 124 51 140 8 17 22 50 33 75 10 24 28 59 40 78 19 27 20 34 8 38 -23 9 -29 0 -84 -113 -70 -143 -67 -137 -98 -228 -23 -71 -27 -96 -27 -216 -1 -134 -1 -136 29 -185 93 -151 305 -121 595 84 84 60 261 231 363 352 44 52 87 98 96 102 25 10 79 9 86 -2 16 -25 25 -5 25 55 0 36 -3 65 -6 65 -3 0 -14 -5 -25 -10 -27 -15 -24 -7 19 58 21 31 46 71 54 87 70 135 97 178 102 165 16 -46 88 -307 89 -323 1 -11 25 -36 56 -58 52 -37 60 -40 114 -37 l59 3 20 55 c11 30 38 105 60 165 22 61 44 119 48 130 5 11 16 41 26 67 9 26 23 53 30 59 8 6 14 14 14 18 0 5 -250 6 -289 1 -3 0 5 -10 17 -23 19 -21 21 -28 11 -55 l-11 -32 -78 0 -78 0 -7 30 c-5 21 -2 39 9 55 9 13 16 26 16 28 0 3 -20 2 -45 -1 -25 -2 -45 -3 -45 -1 0 2 10 33 21 69 42 130 37 314 -10 388 -31 50 -143 80 -236 64z m425 -718 c0 -6 -7 -25 -15 -40 -8 -16 -15 -37 -15 -46 0 -9 -4 -20 -10 -23 -5 -3 -10 -16 -11 -28 0 -22 -34 59 -49 120 l-8 32 54 -1 c35 -1 54 -6 54 -14z"/>
 <path d="M2660 2540 c0 -6 -8 -14 -17 -18 -17 -6 -16 -8 3 -27 l20 -21 15 21 c14 18 13 22 -3 38 -10 9 -18 12 -18 7z"/>
 <path d="M964 2526 c-8 -22 3 -33 18 -18 9 9 9 15 0 24 -9 9 -13 7 -18 -6z"/>
 <path d="M1365 2530 c-7 -12 2 -30 16 -30 12 0 12 27 0 35 -5 3 -12 1 -16 -5z"/>
 <path d="M1940 2525 c0 -9 5 -15 11 -13 6 2 11 8 11 13 0 5 -5 11 -11 13 -6 2 -11 -4 -11 -13z"/>
 <path d="M2726 2523 c-11 -11 -6 -23 9 -23 8 0 15 4 15 9 0 13 -16 22 -24 14z"/>
 <path d="M910 2475 c0 -8 5 -15 10 -15 6 0 10 7 10 15 0 8 -4 15 -10 15 -5 0 -10 -7 -10 -15z"/>
 <path d="M1132 2468 c6 -18 28 -21 28 -4 0 9 -7 16 -16 16 -9 0 -14 -5 -12 -12z"/>
 <path d="M2326 2473 c-3 -3 -3 -10 0 -14 7 -12 34 -11 34 0 0 11 -26 22 -34 14z"/>
 <path d="M2620 2450 c0 -5 7 -10 15 -10 8 0 15 5 15 10 0 6 -7 10 -15 10 -8 0 -15 -4 -15 -10z"/>
 <path d="M780 2415 c0 -8 5 -15 10 -15 6 0 10 7 10 15 0 8 -4 15 -10 15 -5 0 -10 -7 -10 -15z"/>
 <path d="M925 2410 c-7 -12 2 -30 16 -30 5 0 9 9 9 20 0 21 -15 27 -25 10z"/>
 <path d="M1760 2383 c-34 -13 -150 -134 -150 -157 0 -3 9 -10 20 -16 17 -9 30 -4 83 36 102 78 112 90 99 119 -11 25 -23 29 -52 18z"/>
 <path d="M1273 2344 c-8 -21 13 -42 28 -27 13 13 5 43 -11 43 -6 0 -13 -7 -17 -16z"/>
 <path d="M2425 2341 c-8 -15 3 -31 21 -31 9 0 14 7 12 17 -4 20 -24 28 -33 14z"/>
 <path d="M2747 2344 c-8 -8 1 -24 14 -24 5 0 9 7 9 15 0 15 -12 20 -23 9z"/>
 <path d="M2322 2313 c2 -10 10 -18 18 -18 8 0 16 8 18 18 2 12 -3 17 -18 17 -15 0 -20 -5 -18 -17z"/>
 <path d="M2816 2323 c-11 -11 -6 -23 9 -23 8 0 15 4 15 9 0 13 -16 22 -24 14z"/>
 <path d="M1901 2248 c-8 -13 -19 -18 -32 -15 -26 7 -24 -7 5 -37 30 -34 95 -37 103 -6 7 26 21 25 50 -2 13 -12 25 -19 28 -16 10 10 -39 48 -91 72 -50 23 -51 23 -63 4z m59 -43 c0 -8 -9 -15 -20 -15 -20 0 -26 11 -13 23 12 13 33 7 33 -8z"/>
 <path d="M2774 2249 c-5 -9 -18 -19 -29 -23 -19 -8 -19 -8 3 -17 12 -4 22 -13 22 -19 0 -5 5 -10 10 -10 6 0 10 6 10 14 0 8 6 17 13 19 8 4 9 8 1 14 -6 4 -13 15 -16 23 -4 12 -6 12 -14 -1z"/>
 <path d="M2627 2243 c-12 -11 -8 -23 8 -23 8 0 15 7 15 15 0 16 -12 20 -23 8z"/>
 <path d="M1494 2216 c-7 -6 -37 -35 -69 -64 l-57 -53 23 -25 22 -24 -88 0 -89 0 36 -37 c24 -27 41 -58 53 -103 10 -36 26 -94 36 -130 53 -190 50 -170 29 -201 -11 -15 -20 -29 -20 -31 0 -1 61 -3 135 -3 74 0 135 -3 135 -7 0 -4 -8 -12 -17 -18 -14 -8 -8 -10 27 -8 33 2 46 7 48 21 2 9 -3 17 -10 17 -8 0 -23 6 -33 14 -17 12 -17 16 -3 47 8 19 25 62 38 97 13 35 28 62 36 62 8 0 14 -5 14 -11 0 -5 5 -7 11 -3 6 3 14 2 18 -4 4 -7 18 -13 31 -14 21 -3 24 1 22 20 -2 12 1 22 6 22 5 0 27 17 50 38 34 31 42 46 42 73 0 19 6 41 13 48 10 10 8 15 -7 26 -10 8 -23 12 -27 9 -5 -3 -9 0 -9 5 0 6 -7 11 -15 11 -8 0 -15 5 -15 10 0 6 -4 10 -10 10 -5 0 -19 9 -30 20 -18 18 -33 20 -150 20 -71 0 -130 3 -130 6 0 3 19 29 42 56 40 48 41 51 23 64 -17 13 -23 10 -58 -28 -37 -42 -38 -37 -3 32 10 19 14 32 10 28 -4 -4 -13 0 -21 10 -9 10 -11 11 -7 2 6 -12 5 -13 -7 -4 -10 9 -17 9 -25 0z m-76 -238 c-16 -23 -23 -27 -29 -16 -9 14 -3 45 14 66 9 11 13 11 24 -4 10 -14 9 -22 -9 -46z m137 38 c10 -15 14 -33 9 -50 -5 -23 -11 -26 -49 -26 -24 0 -46 4 -49 8 -6 10 51 92 65 92 5 0 16 -11 24 -24z m287 -26 c22 0 24 -23 3 -40 -22 -18 -18 -33 6 -27 13 3 19 1 16 -6 -2 -7 -19 -11 -36 -9 -18 1 -41 -3 -51 -8 -25 -13 -25 -13 1 56 15 40 24 53 32 45 6 -6 19 -11 29 -11z m-382 -150 c0 -11 4 -20 9 -20 5 0 7 9 4 20 -5 17 0 20 26 20 l31 0 -21 -52 c-45 -114 -40 -110 -60 -44 -11 32 -16 62 -13 67 3 5 0 9 -5 9 -6 0 -11 5 -11 10 0 6 9 10 20 10 13 0 20 -7 20 -20z"/>
 <path d="M2607 2173 c-12 -11 -8 -23 8 -23 8 0 15 7 15 15 0 16 -12 20 -23 8z"/>
 <path d="M1816 2141 c-16 -17 -13 -56 4 -46 4 3 11 -2 14 -11 4 -9 9 -14 13 -11 3 4 11 0 17 -8 9 -13 11 -10 11 14 0 16 -3 33 -7 37 -5 4 -8 16 -8 26 0 23 -22 23 -44 -1z"/>
 <path d="M2085 2101 l-40 -7 42 -8 c43 -8 68 -2 58 15 -4 5 -9 8 -13 8 -4 -1 -25 -5 -47 -8z"/>
 <path d="M1272 2084 c4 -21 22 -23 26 -1 2 10 -3 17 -13 17 -10 0 -15 -6 -13 -16z"/>
 <path d="M640 2042 c0 -3 10 -16 22 -29 21 -22 22 -30 19 -220 -2 -151 -6 -202 -17 -217 -8 -11 -14 -24 -14 -28 0 -5 49 -8 108 -8 l108 0 18 30 c10 17 23 41 30 53 6 12 24 41 39 65 15 24 32 53 38 65 6 12 19 38 30 57 l19 35 0 -118 c0 -104 -3 -123 -21 -148 l-20 -29 75 0 c42 0 76 3 76 6 0 3 -9 18 -21 32 -19 25 -20 36 -15 209 4 165 6 185 25 212 12 16 21 32 21 35 0 3 -49 6 -109 6 l-110 0 -22 -40 c-12 -21 -27 -36 -32 -33 -6 3 -7 1 -3 -5 3 -6 -16 -49 -44 -96 -27 -46 -50 -89 -50 -94 0 -5 -7 -15 -16 -23 -14 -12 -15 -2 -12 108 3 112 5 123 27 147 l24 26 -29 1 c-16 1 -55 2 -86 4 -32 2 -58 0 -58 -3z"/>
 <path d="M2506 1573 c-12 -12 -5 -23 14 -23 11 0 20 4 20 9 0 11 -26 22 -34 14z"/>
 <path d="M1312 1166 c1 -10 8 -17 13 -17 15 1 12 24 -3 29 -9 3 -13 -2 -10 -12z"/>
 <path d="M1405 1164 c-4 -12 -16 -26 -28 -32 -18 -9 -19 -11 -5 -11 10 -1 23 -11 29 -23 l12 -22 8 22 c5 12 16 22 26 22 16 0 16 2 -3 18 -12 9 -24 24 -27 32 -4 11 -7 10 -12 -6z"/>
 <path d="M1260 1104 c0 -17 22 -14 28 4 2 7 -3 12 -12 12 -9 0 -16 -7 -16 -16z"/>
 <path d="M2025 1029 c-10 -15 1 -23 20 -15 9 3 13 10 10 16 -8 13 -22 13 -30 -1z"/>
 <path d="M1512 928 c6 -18 28 -21 28 -4 0 9 -7 16 -16 16 -9 0 -14 -5 -12 -12z"/>
 <path d="M1837 913 c-12 -11 -8 -23 8 -23 8 0 15 7 15 15 0 16 -12 20 -23 8z"/>
 <path d="M1560 890 c0 -5 -7 -10 -15 -10 -8 0 -15 -7 -15 -16 0 -8 -4 -13 -9 -9 -10 5 -27 -13 -19 -21 6 -6 58 19 58 29 0 4 7 7 15 7 8 0 15 7 15 15 0 8 -7 15 -15 15 -8 0 -15 -4 -15 -10z"/>
 <path d="M1712 848 c6 -18 28 -21 28 -4 0 9 -7 16 -16 16 -9 0 -14 -5 -12 -12z"/>
 <path d="M1832 756 c1 -10 8 -17 13 -17 15 1 12 24 -3 29 -9 3 -13 -2 -10 -12z"/>
 <path d="M2019 740 c-14 -15 -14 -19 2 -38 14 -18 18 -19 23 -7 3 8 12 15 21 15 8 0 15 5 15 10 0 6 -7 10 -15 10 -7 0 -18 6 -22 13 -6 11 -11 10 -24 -3z"/>
 <path d="M1675 739 c-10 -15 1 -23 20 -15 9 3 13 10 10 16 -8 13 -22 13 -30 -1z"/>
 <path d="M1476 671 c-6 -10 33 -23 46 -15 4 3 8 9 8 15 0 12 -47 12 -54 0z"/>
 <path d="M1455 640 c-3 -5 -13 -6 -23 -3 -12 4 -14 3 -7 -5 6 -5 19 -12 30 -14 12 -2 19 -10 17 -21 -4 -22 17 -22 33 0 11 14 9 20 -10 35 -26 21 -32 22 -40 8z"/>
 <path d="M1690 629 c0 -6 -7 -8 -17 -5 -27 11 -83 -13 -83 -35 0 -13 7 -19 21 -19 18 0 19 -3 10 -14 -17 -20 17 -41 92 -56 75 -15 249 0 273 24 11 12 44 70 44 79 0 8 -64 19 -142 24 -87 5 -99 -5 -45 -37 17 -11 26 -20 19 -20 -19 0 -70 28 -79 44 -10 17 -93 31 -93 15z"/>
 <path d="M1475 539 c2 -30 11 -35 80 -45 28 -4 28 -3 -8 14 -22 9 -38 22 -37 27 1 5 -7 12 -18 16 -14 5 -18 3 -17 -12z"/>
 </g>
<g id="layer108" fill="#e87051" stroke="none">
 <path d="M1270 2806 c0 -9 -7 -16 -15 -16 -20 0 -19 -6 5 -30 15 -15 21 -17 27 -6 4 7 13 15 20 17 8 3 3 13 -12 28 -20 18 -25 20 -25 7z"/>
 <path d="M2380 2755 c0 -8 5 -15 10 -15 6 0 10 7 10 15 0 8 -4 15 -10 15 -5 0 -10 -7 -10 -15z"/>
 <path d="M1380 2656 c0 -9 7 -16 16 -16 9 0 14 5 12 12 -6 18 -28 21 -28 4z"/>
 <path d="M1230 2626 c0 -9 7 -16 16 -16 9 0 14 5 12 12 -6 18 -28 21 -28 4z"/>
 <path d="M2225 2572 c-42 -7 -165 -55 -165 -64 0 -6 8 -7 18 -3 50 22 200 56 225 51 16 -3 48 -15 72 -25 51 -23 80 -70 92 -153 12 -78 6 -107 -23 -118 -29 -11 -31 -30 -5 -37 19 -5 19 -6 -1 -76 -22 -80 -33 -98 -54 -90 -18 7 -18 -6 0 -26 13 -14 11 -24 -14 -76 -24 -49 -30 -55 -30 -33 0 34 -57 95 -113 120 -52 24 -151 33 -202 19 -48 -13 -60 -5 -17 11 18 7 32 15 32 19 0 13 -31 19 -50 9 -11 -6 -29 -14 -40 -20 -12 -6 -21 -6 -25 0 -11 18 -25 10 -25 -15 0 -18 13 -33 51 -59 43 -29 55 -33 85 -26 33 8 89 0 113 -14 17 -11 13 -33 -10 -50 -20 -14 -18 -16 55 -65 41 -28 80 -51 86 -51 17 0 13 -8 -47 -96 -55 -83 -57 -84 -97 -84 -23 0 -52 7 -64 16 -32 22 -14 48 50 72 83 31 108 44 108 56 0 6 -39 34 -86 63 -86 51 -86 51 -126 37 -68 -24 -96 -50 -113 -106 -33 -112 31 -195 159 -207 l60 -6 -72 -82 c-219 -249 -442 -424 -608 -479 -97 -32 -197 -31 -241 2 -62 47 -68 64 -68 202 1 120 3 133 38 237 41 121 47 135 100 245 21 43 33 78 28 83 -16 16 -27 1 -80 -110 -70 -143 -67 -137 -98 -228 -23 -71 -27 -96 -27 -216 -1 -134 -1 -136 29 -185 93 -151 305 -121 595 84 87 62 285 255 377 370 64 79 79 92 106 94 44 2 50 1 70 -7 15 -6 17 0 17 54 0 65 -1 67 -31 51 -26 -14 -24 -9 15 53 43 66 69 112 117 201 20 37 39 64 41 60 3 -5 26 -85 53 -179 l48 -170 53 -38 c49 -35 59 -38 110 -35 l56 3 20 55 c11 30 38 105 60 165 22 61 44 119 48 130 5 11 16 41 26 67 9 26 23 53 30 59 8 6 14 14 14 18 0 5 -250 6 -289 1 -3 0 5 -10 17 -23 19 -21 21 -28 11 -55 l-11 -32 -78 0 -78 0 -7 30 c-5 21 -2 39 9 55 9 13 16 26 16 28 0 3 -20 2 -45 -1 -25 -2 -45 -3 -45 -1 0 2 10 33 21 69 42 130 37 314 -10 388 -31 50 -143 80 -236 64z m425 -718 c0 -6 -7 -25 -15 -40 -8 -16 -15 -37 -15 -46 0 -9 -4 -20 -10 -23 -5 -3 -10 -16 -11 -28 0 -22 -34 59 -49 120 l-8 32 54 -1 c35 -1 54 -6 54 -14z"/>
 <path d="M2660 2540 c0 -6 -8 -14 -17 -18 -17 -6 -16 -8 3 -27 l20 -21 15 21 c14 18 13 22 -3 38 -10 9 -18 12 -18 7z"/>
 <path d="M964 2526 c-8 -22 3 -33 18 -18 9 9 9 15 0 24 -9 9 -13 7 -18 -6z"/>
 <path d="M1365 2530 c-7 -12 2 -30 16 -30 12 0 12 27 0 35 -5 3 -12 1 -16 -5z"/>
 <path d="M1940 2525 c0 -9 5 -15 11 -13 6 2 11 8 11 13 0 5 -5 11 -11 13 -6 2 -11 -4 -11 -13z"/>
 <path d="M2726 2523 c-11 -11 -6 -23 9 -23 8 0 15 4 15 9 0 13 -16 22 -24 14z"/>
 <path d="M910 2475 c0 -8 5 -15 10 -15 6 0 10 7 10 15 0 8 -4 15 -10 15 -5 0 -10 -7 -10 -15z"/>
 <path d="M1132 2468 c6 -18 28 -21 28 -4 0 9 -7 16 -16 16 -9 0 -14 -5 -12 -12z"/>
 <path d="M2326 2473 c-3 -3 -3 -10 0 -14 7 -12 34 -11 34 0 0 11 -26 22 -34 14z"/>
 <path d="M2620 2450 c0 -5 7 -10 15 -10 8 0 15 5 15 10 0 6 -7 10 -15 10 -8 0 -15 -4 -15 -10z"/>
 <path d="M780 2415 c0 -8 5 -15 10 -15 6 0 10 7 10 15 0 8 -4 15 -10 15 -5 0 -10 -7 -10 -15z"/>
 <path d="M925 2410 c-7 -12 2 -30 16 -30 5 0 9 9 9 20 0 21 -15 27 -25 10z"/>
 <path d="M1760 2383 c-25 -10 -71 -52 -112 -103 l-39 -49 22 -15 c21 -14 26 -12 83 31 101 77 111 89 98 118 -11 25 -23 29 -52 18z"/>
 <path d="M1273 2344 c-8 -21 13 -42 28 -27 13 13 5 43 -11 43 -6 0 -13 -7 -17 -16z"/>
 <path d="M2425 2341 c-8 -15 3 -31 21 -31 9 0 14 7 12 17 -4 20 -24 28 -33 14z"/>
 <path d="M2747 2344 c-8 -8 1 -24 14 -24 5 0 9 7 9 15 0 15 -12 20 -23 9z"/>
 <path d="M2322 2313 c2 -10 10 -18 18 -18 8 0 16 8 18 18 2 12 -3 17 -18 17 -15 0 -20 -5 -18 -17z"/>
 <path d="M2816 2323 c-11 -11 -6 -23 9 -23 8 0 15 4 15 9 0 13 -16 22 -24 14z"/>
 <path d="M1901 2248 c-8 -13 -19 -18 -32 -15 -26 7 -24 -7 5 -37 30 -34 95 -37 103 -6 7 26 21 25 50 -2 13 -12 25 -19 28 -16 10 10 -39 48 -91 72 -50 23 -51 23 -63 4z m59 -43 c0 -8 -9 -15 -20 -15 -20 0 -26 11 -13 23 12 13 33 7 33 -8z"/>
 <path d="M2774 2249 c-5 -9 -18 -19 -29 -23 -19 -8 -19 -8 3 -17 12 -4 22 -13 22 -19 0 -5 5 -10 10 -10 6 0 10 6 10 14 0 8 6 17 13 19 8 4 9 8 1 14 -6 4 -13 15 -16 23 -4 12 -6 12 -14 -1z"/>
 <path d="M2627 2243 c-12 -11 -8 -23 8 -23 8 0 15 7 15 15 0 16 -12 20 -23 8z"/>
 <path d="M1494 2216 c-7 -6 -37 -35 -69 -64 l-57 -53 23 -25 22 -24 -88 0 -89 0 35 -37 c38 -40 42 -52 105 -282 l33 -124 -19 -27 c-11 -16 -20 -30 -20 -32 0 -1 61 -3 135 -3 74 0 135 -3 135 -7 0 -4 -8 -12 -17 -18 -14 -8 -8 -10 27 -8 33 2 46 7 48 21 2 9 -3 17 -10 17 -8 0 -23 6 -33 14 -16 12 -18 18 -8 37 6 13 22 55 34 93 13 37 29 70 35 73 6 2 28 -3 49 -11 50 -21 64 -20 58 4 -3 11 -1 20 4 20 5 0 28 17 51 38 34 32 42 46 42 75 0 20 5 39 10 42 17 10 11 23 -12 31 -29 9 -101 55 -111 71 -6 9 -44 13 -137 13 -72 0 -130 3 -130 6 0 3 19 29 42 56 33 40 39 52 27 59 -23 14 -30 11 -66 -28 -19 -21 -31 -31 -26 -23 4 8 13 29 19 47 10 29 9 34 -10 46 -16 11 -24 11 -32 3z m-76 -238 c-16 -23 -23 -27 -29 -16 -9 14 -3 45 14 66 9 11 13 11 24 -4 10 -14 9 -22 -9 -46z m137 38 c10 -15 14 -33 9 -50 -5 -23 -11 -26 -49 -26 -24 0 -46 4 -49 8 -6 10 51 92 65 92 5 0 16 -11 24 -24z m287 -26 c22 0 24 -23 3 -40 -22 -18 -18 -33 6 -27 13 3 19 1 16 -6 -2 -7 -19 -11 -36 -9 -18 1 -41 -3 -51 -8 -25 -13 -25 -13 1 56 15 40 24 53 32 45 6 -6 19 -11 29 -11z m-381 -147 c1 -17 2 -17 6 0 3 11 14 17 34 17 l29 0 -26 -72 c-14 -40 -29 -77 -33 -81 -7 -7 -51 122 -51 146 0 16 40 6 41 -10z"/>
 <path d="M2607 2173 c-12 -11 -8 -23 8 -23 8 0 15 7 15 15 0 16 -12 20 -23 8z"/>
 <path d="M1814 2139 c-18 -20 -18 -21 1 -36 41 -30 53 -33 59 -16 4 9 2 21 -4 27 -5 5 -10 18 -10 28 0 24 -23 23 -46 -3z"/>
 <path d="M2085 2101 l-40 -7 42 -8 c43 -8 68 -2 58 15 -4 5 -9 8 -13 8 -4 -1 -25 -5 -47 -8z"/>
 <path d="M1272 2084 c4 -21 22 -23 26 -1 2 10 -3 17 -13 17 -10 0 -15 -6 -13 -16z"/>
 <path d="M646 2042 c-3 -2 5 -12 17 -22 21 -17 21 -23 18 -221 -2 -155 -6 -208 -17 -223 -8 -11 -14 -24 -14 -28 0 -5 49 -8 108 -8 l108 0 18 30 c10 17 23 41 30 53 6 12 24 41 39 65 15 24 32 53 38 65 6 12 19 38 30 57 l19 35 0 -118 c0 -104 -3 -123 -21 -148 l-20 -29 75 0 c42 0 76 3 76 6 0 3 -9 18 -21 32 -19 25 -20 36 -15 209 4 165 6 185 25 212 12 16 21 32 21 35 0 4 -50 5 -111 4 l-110 -3 -31 -55 c-16 -30 -50 -87 -74 -126 -24 -39 -44 -75 -44 -81 0 -6 -7 -16 -15 -23 -13 -11 -15 2 -15 103 0 110 1 117 26 146 l26 31 -29 1 c-15 1 -52 2 -80 4 -29 1 -55 0 -57 -3z"/>
 <path d="M2505 1570 c-9 -15 -1 -23 21 -18 15 3 16 4 1 16 -11 9 -17 10 -22 2z"/>
 <path d="M1312 1166 c1 -10 8 -17 13 -17 15 1 12 24 -3 29 -9 3 -13 -2 -10 -12z"/>
 <path d="M1405 1164 c-4 -12 -16 -26 -28 -32 -18 -9 -19 -11 -5 -11 10 -1 23 -11 29 -23 l12 -22 8 22 c5 12 16 22 26 22 16 0 16 2 -3 18 -12 9 -24 24 -27 32 -4 11 -7 10 -12 -6z"/>
 <path d="M1260 1104 c0 -17 22 -14 28 4 2 7 -3 12 -12 12 -9 0 -16 -7 -16 -16z"/>
 <path d="M2025 1029 c-10 -15 1 -23 20 -15 9 3 13 10 10 16 -8 13 -22 13 -30 -1z"/>
 <path d="M1512 928 c6 -18 28 -21 28 -4 0 9 -7 16 -16 16 -9 0 -14 -5 -12 -12z"/>
 <path d="M1837 913 c-12 -11 -8 -23 8 -23 8 0 15 7 15 15 0 16 -12 20 -23 8z"/>
 <path d="M1560 890 c0 -5 -7 -10 -15 -10 -8 0 -15 -7 -15 -16 0 -8 -4 -13 -9 -9 -10 5 -27 -13 -19 -21 6 -6 58 19 58 29 0 4 7 7 15 7 8 0 15 7 15 15 0 8 -7 15 -15 15 -8 0 -15 -4 -15 -10z"/>
 <path d="M1712 848 c6 -18 28 -21 28 -4 0 9 -7 16 -16 16 -9 0 -14 -5 -12 -12z"/>
 <path d="M1832 756 c1 -10 8 -17 13 -17 15 1 12 24 -3 29 -9 3 -13 -2 -10 -12z"/>
 <path d="M2019 740 c-14 -15 -14 -19 2 -38 14 -18 18 -19 23 -7 3 8 12 15 21 15 8 0 15 5 15 10 0 6 -7 10 -15 10 -7 0 -18 6 -22 13 -6 11 -11 10 -24 -3z"/>
 <path d="M1675 739 c-10 -15 1 -23 20 -15 9 3 13 10 10 16 -8 13 -22 13 -30 -1z"/>
 <path d="M1476 671 c-6 -10 33 -23 46 -15 4 3 8 9 8 15 0 12 -47 12 -54 0z"/>
 <path d="M1455 640 c-3 -5 -13 -6 -23 -3 -12 4 -14 3 -7 -5 6 -5 19 -12 30 -14 12 -2 19 -10 17 -21 -4 -22 17 -22 33 0 11 14 9 20 -10 35 -26 21 -32 22 -40 8z"/>
 <path d="M1690 629 c0 -6 -7 -8 -17 -5 -27 11 -83 -13 -83 -35 0 -13 7 -19 21 -19 18 0 19 -3 10 -14 -17 -20 17 -41 92 -56 75 -15 249 0 273 24 11 12 44 70 44 79 0 8 -64 19 -142 24 -87 5 -99 -5 -45 -37 17 -11 26 -20 19 -20 -19 0 -70 28 -79 44 -10 17 -93 31 -93 15z"/>
 <path d="M1475 539 c2 -30 11 -35 80 -45 28 -4 28 -3 -8 14 -22 9 -38 22 -37 27 1 5 -7 12 -18 16 -14 5 -18 3 -17 -12z"/>
 </g>
<g id="layer109" fill="#ba847c" stroke="none">
 <path d="M1270 2806 c0 -9 -7 -16 -15 -16 -20 0 -19 -6 5 -30 15 -15 21 -17 27 -6 4 7 13 15 20 17 8 3 3 13 -12 28 -20 18 -25 20 -25 7z"/>
 <path d="M2380 2755 c0 -8 5 -15 10 -15 6 0 10 7 10 15 0 8 -4 15 -10 15 -5 0 -10 -7 -10 -15z"/>
 <path d="M1230 2625 c0 -8 5 -15 10 -15 6 0 10 7 10 15 0 8 -4 15 -10 15 -5 0 -10 -7 -10 -15z"/>
 <path d="M2160 2551 c-51 -16 -103 -40 -89 -41 4 0 25 7 48 15 211 74 345 13 351 -160 4 -105 1 -123 -20 -118 -24 6 -28 -15 -4 -24 17 -6 14 -29 -14 -120 -12 -40 -20 -53 -35 -53 -16 0 -17 -2 -7 -15 11 -13 8 -27 -16 -83 l-28 -67 -9 38 c-11 46 -83 112 -141 129 -50 15 -161 14 -199 -1 -24 -9 -33 -8 -54 9 -32 25 -43 25 -43 0 0 -13 16 -31 46 -50 42 -26 53 -29 103 -24 94 10 150 -28 101 -68 -14 -11 -19 -22 -14 -27 28 -27 140 -91 151 -87 18 7 4 -18 -60 -111 l-49 -73 -48 0 c-34 0 -52 5 -65 20 -17 19 -17 21 -1 38 9 11 48 31 86 46 38 15 72 32 75 37 8 12 -144 109 -170 108 -36 0 -109 -43 -132 -78 -17 -25 -23 -49 -23 -87 0 -46 5 -59 32 -90 37 -42 63 -54 138 -63 l54 -6 -74 -85 c-280 -321 -545 -502 -736 -502 -103 -1 -164 48 -184 149 -27 127 32 356 146 572 18 36 32 67 29 69 -34 34 -175 -275 -206 -454 -28 -163 13 -307 101 -351 97 -50 240 -17 425 97 153 93 338 261 471 426 63 79 78 92 110 97 20 4 45 2 55 -3 28 -15 29 -14 29 50 0 64 -1 66 -32 49 -25 -13 -26 -16 45 103 32 53 71 127 88 163 17 36 34 63 38 60 4 -2 30 -84 57 -181 l49 -177 53 -39 c48 -36 57 -39 109 -36 l56 3 53 150 c85 236 116 314 130 326 8 6 14 14 14 18 0 5 -250 6 -289 1 -3 0 5 -10 17 -23 19 -21 21 -27 11 -56 l-11 -32 -82 3 -81 3 -3 32 c-2 18 2 41 8 53 10 19 8 20 -30 20 -22 0 -40 5 -40 10 0 6 9 43 20 83 27 95 36 221 21 284 -15 56 -50 107 -91 128 -40 21 -170 19 -240 -4z m474 -748 c-43 -113 -41 -110 -48 -93 -10 26 -46 145 -46 153 0 4 27 7 60 7 l60 0 -26 -67z"/>
 <path d="M2660 2540 c0 -6 -8 -14 -17 -18 -17 -6 -16 -8 3 -27 l20 -21 15 21 c14 18 13 22 -3 38 -10 9 -18 12 -18 7z"/>
 <path d="M964 2526 c-8 -22 3 -33 18 -18 9 9 9 15 0 24 -9 9 -13 7 -18 -6z"/>
 <path d="M1366 2533 c-11 -11 -6 -23 9 -23 8 0 15 4 15 9 0 13 -16 22 -24 14z"/>
 <path d="M2726 2523 c-11 -11 -6 -23 9 -23 8 0 15 4 15 9 0 13 -16 22 -24 14z"/>
 <path d="M910 2475 c0 -8 5 -15 10 -15 6 0 10 7 10 15 0 8 -4 15 -10 15 -5 0 -10 -7 -10 -15z"/>
 <path d="M1140 2465 c0 -8 5 -15 10 -15 6 0 10 7 10 15 0 8 -4 15 -10 15 -5 0 -10 -7 -10 -15z"/>
 <path d="M780 2415 c0 -8 5 -15 10 -15 6 0 10 7 10 15 0 8 -4 15 -10 15 -5 0 -10 -7 -10 -15z"/>
 <path d="M926 2413 c-11 -11 -6 -23 9 -23 8 0 15 4 15 9 0 13 -16 22 -24 14z"/>
 <path d="M1754 2380 c-25 -10 -134 -129 -134 -146 0 -7 8 -17 17 -22 17 -10 29 -2 144 97 44 37 46 43 23 65 -17 18 -20 18 -50 6z"/>
 <path d="M1277 2344 c-8 -8 1 -24 14 -24 5 0 9 7 9 15 0 15 -12 20 -23 9z"/>
 <path d="M2436 2343 c-11 -11 -6 -23 9 -23 8 0 15 4 15 9 0 13 -16 22 -24 14z"/>
 <path d="M2747 2344 c-8 -8 1 -24 14 -24 5 0 9 7 9 15 0 15 -12 20 -23 9z"/>
 <path d="M2816 2323 c-11 -11 -6 -23 9 -23 8 0 15 4 15 9 0 13 -16 22 -24 14z"/>
 <path d="M2771 2242 c-10 -18 -9 -26 4 -44 12 -18 15 -19 15 -6 0 9 6 19 13 21 8 4 9 8 1 14 -6 4 -13 15 -16 23 -4 11 -7 10 -17 -8z"/>
 <path d="M2627 2243 c-12 -11 -8 -23 8 -23 8 0 15 7 15 15 0 16 -12 20 -23 8z"/>
 <path d="M1553 2147 c-16 -18 -58 -73 -93 -121 -55 -76 -65 -85 -71 -68 -5 12 -4 36 2 54 5 18 9 34 9 35 0 2 -34 3 -75 3 -41 0 -75 -2 -75 -5 0 -3 13 -18 29 -33 25 -23 38 -56 80 -206 28 -98 51 -186 51 -194 0 -9 -10 -26 -22 -39 l-21 -23 130 0 131 0 72 203 c40 111 81 219 91 241 10 21 16 43 13 47 -6 10 -264 12 -264 2 0 -3 7 -14 16 -24 12 -13 15 -28 10 -54 l-7 -35 -59 0 c-33 0 -60 2 -60 4 0 3 38 53 85 112 47 59 84 112 82 118 -7 21 -25 15 -54 -17z m-23 -292 c0 -4 -20 -55 -52 -135 -10 -23 -12 -20 -34 44 -33 97 -33 96 31 96 30 0 55 -2 55 -5z"/>
 <path d="M2605 2169 c-10 -15 3 -25 16 -12 7 7 7 13 1 17 -6 3 -14 1 -17 -5z"/>
 <path d="M1270 2080 c0 -5 7 -10 15 -10 8 0 15 5 15 10 0 6 -7 10 -15 10 -8 0 -15 -4 -15 -10z"/>
 <path d="M927 2013 c-13 -21 -55 -91 -93 -156 l-69 -118 -3 121 c-2 110 -1 124 18 151 l21 29 -76 0 -76 0 20 -26 c20 -25 21 -40 21 -219 0 -177 -2 -194 -20 -218 -11 -14 -20 -28 -20 -31 0 -3 46 -6 103 -6 103 0 103 0 125 30 12 16 22 31 22 33 0 3 31 58 70 123 l70 119 0 -124 c0 -114 -2 -127 -22 -148 l-21 -23 78 0 78 0 -19 21 c-17 19 -19 38 -18 221 1 188 2 200 23 222 11 12 21 25 21 29 0 4 -47 7 -105 7 l-105 0 -23 -37z"/>
 <path d="M1900 1945 c0 -27 9 -32 28 -13 8 8 9 15 1 25 -17 20 -29 15 -29 -12z"/>
 <path d="M2500 1560 c0 -5 7 -10 15 -10 8 0 15 5 15 10 0 6 -7 10 -15 10 -8 0 -15 -4 -15 -10z"/>
 <path d="M1397 1142 c-12 -15 -12 -19 2 -32 14 -13 18 -13 31 0 13 13 13 17 -2 32 -15 15 -17 15 -31 0z"/>
 <path d="M2025 1029 c-10 -15 1 -23 20 -15 9 3 13 10 10 16 -8 13 -22 13 -30 -1z"/>
 <path d="M1567 894 c-8 -8 1 -24 14 -24 5 0 9 7 9 15 0 15 -12 20 -23 9z"/>
 <path d="M1536 873 c-11 -11 -6 -23 9 -23 8 0 15 4 15 9 0 13 -16 22 -24 14z"/>
 <path d="M1716 852 c-3 -6 -1 -14 5 -17 15 -10 25 3 12 16 -7 7 -13 7 -17 1z"/>
 <path d="M1832 756 c1 -10 8 -17 13 -17 15 1 12 24 -3 29 -9 3 -13 -2 -10 -12z"/>
 <path d="M2019 740 c-14 -15 -14 -19 1 -37 16 -21 17 -21 29 -2 9 16 9 23 -1 37 -12 17 -14 17 -29 2z"/>
 <path d="M1675 739 c-10 -15 1 -23 20 -15 9 3 13 10 10 16 -8 13 -22 13 -30 -1z"/>
 <path d="M1485 670 c-4 -6 5 -10 20 -10 15 0 24 4 20 10 -3 6 -12 10 -20 10 -8 0 -17 -4 -20 -10z"/>
 <path d="M1426 628 c3 -4 16 -8 29 -8 13 0 27 -4 30 -10 3 -5 1 -10 -4 -10 -6 0 -11 -4 -11 -10 0 -17 25 -11 38 10 10 17 10 20 -3 20 -8 0 -15 4 -15 9 0 5 -15 9 -34 8 -19 0 -33 -5 -30 -9z"/>
 <path d="M1752 613 c-8 -13 -20 -15 -66 -10 -44 4 -56 3 -56 -8 0 -8 5 -17 12 -21 7 -5 3 -10 -13 -16 l-24 -9 22 -18 c31 -26 134 -43 206 -36 103 10 140 17 153 29 11 12 44 70 44 79 0 8 -64 19 -142 24 -87 5 -99 -5 -45 -37 17 -11 25 -20 17 -20 -20 0 -80 37 -80 50 0 16 -18 12 -28 -7z"/>
 <path d="M1475 539 c2 -30 11 -35 80 -45 28 -4 28 -3 -8 14 -22 9 -38 22 -37 27 1 5 -7 12 -18 16 -14 5 -18 3 -17 -12z"/>
 </g>
<g id="layer110" fill="#e57f85" stroke="none">
 <path d="M1264 2789 c-10 -17 13 -36 27 -22 12 12 4 33 -11 33 -5 0 -12 -5 -16 -11z"/>
 <path d="M2146 2545 c-37 -13 -71 -26 -74 -29 -9 -9 2 -7 47 9 131 46 244 39 299 -18 42 -44 64 -124 56 -203 -6 -54 -9 -61 -25 -57 -23 6 -26 -15 -3 -24 17 -6 14 -29 -14 -120 -12 -40 -20 -53 -35 -53 -16 0 -17 -2 -7 -15 11 -13 8 -27 -16 -83 l-28 -67 -9 38 c-11 46 -83 112 -141 129 -50 15 -161 14 -199 -1 -24 -9 -33 -8 -54 9 -32 25 -43 25 -43 0 0 -13 16 -31 46 -50 42 -26 53 -29 103 -24 94 10 150 -28 101 -68 -14 -11 -19 -22 -14 -27 29 -28 140 -91 152 -86 15 6 -20 -59 -73 -135 -29 -42 -35 -45 -81 -48 -40 -2 -54 1 -69 18 -17 19 -17 21 -1 38 9 11 48 31 86 46 38 15 72 32 75 37 8 12 -144 109 -170 108 -32 0 -107 -42 -129 -71 -12 -18 -21 -49 -24 -86 -4 -55 -2 -61 29 -96 38 -44 64 -56 138 -65 l54 -6 -53 -65 c-78 -94 -232 -246 -329 -324 -162 -130 -310 -198 -427 -198 -103 -1 -164 48 -184 149 -27 127 32 356 146 572 18 36 32 67 29 69 -14 14 -40 -19 -83 -105 -148 -296 -173 -545 -65 -663 86 -96 247 -76 468 60 153 94 286 214 446 401 86 100 105 117 136 122 20 4 45 2 55 -4 11 -6 21 -9 23 -7 2 2 1 29 -2 60 l-6 57 -23 -16 c-13 -8 -24 -13 -24 -9 0 3 23 40 51 83 28 43 71 119 96 170 26 51 49 90 53 88 4 -2 29 -84 56 -181 l49 -177 52 -38 c44 -33 60 -39 101 -39 28 0 54 6 60 13 6 7 47 113 92 237 45 124 86 230 91 237 8 9 -20 13 -126 15 -75 2 -139 0 -142 -4 -2 -5 0 -8 6 -8 18 0 33 -40 26 -71 l-7 -30 -86 3 -87 3 -3 32 c-2 18 2 41 8 53 10 19 8 20 -30 20 -22 0 -40 5 -40 10 0 6 9 43 20 83 27 94 36 228 20 287 -14 54 -51 105 -90 125 -47 24 -171 19 -254 -10z m488 -742 c-43 -113 -41 -110 -48 -93 -10 26 -46 145 -46 153 0 4 27 7 60 7 l60 0 -26 -67z"/>
 <path d="M965 2530 c-4 -6 -3 -16 3 -22 6 -6 12 -6 17 2 4 6 3 16 -3 22 -6 6 -12 6 -17 -2z"/>
 <path d="M1366 2533 c-11 -11 -6 -23 9 -23 8 0 15 4 15 9 0 13 -16 22 -24 14z"/>
 <path d="M2652 2527 c-7 -8 -6 -17 2 -29 11 -15 13 -15 23 0 13 22 -9 48 -25 29z"/>
 <path d="M910 2475 c0 -8 5 -15 10 -15 6 0 10 7 10 15 0 8 -4 15 -10 15 -5 0 -10 -7 -10 -15z"/>
 <path d="M1140 2465 c0 -8 5 -15 10 -15 6 0 10 7 10 15 0 8 -4 15 -10 15 -5 0 -10 -7 -10 -15z"/>
 <path d="M926 2413 c-11 -11 -6 -23 9 -23 8 0 15 4 15 9 0 13 -16 22 -24 14z"/>
 <path d="M1754 2380 c-25 -10 -134 -129 -134 -146 0 -7 8 -17 17 -22 17 -10 29 -2 144 97 44 37 46 43 23 65 -17 18 -20 18 -50 6z"/>
 <path d="M1277 2344 c-8 -8 1 -24 14 -24 5 0 9 7 9 15 0 15 -12 20 -23 9z"/>
 <path d="M2436 2343 c-11 -11 -6 -23 9 -23 8 0 15 4 15 9 0 13 -16 22 -24 14z"/>
 <path d="M2810 2310 c0 -5 7 -10 15 -10 8 0 15 5 15 10 0 6 -7 10 -15 10 -8 0 -15 -4 -15 -10z"/>
 <path d="M2764 2229 c-10 -17 13 -36 27 -22 12 12 4 33 -11 33 -5 0 -12 -5 -16 -11z"/>
 <path d="M1553 2147 c-16 -18 -58 -73 -93 -121 -55 -76 -65 -85 -71 -68 -5 12 -4 36 2 54 5 18 9 34 9 35 0 2 -34 3 -75 3 -41 0 -75 -2 -75 -5 0 -3 13 -18 29 -33 25 -23 38 -56 80 -206 28 -98 51 -186 51 -194 0 -9 -10 -26 -22 -39 l-21 -23 130 0 131 0 72 203 c40 111 81 219 91 241 10 21 16 43 13 47 -6 10 -264 12 -264 2 0 -3 7 -14 16 -24 12 -13 15 -28 10 -54 l-7 -35 -59 0 c-33 0 -60 2 -60 4 0 3 38 53 85 112 47 59 84 112 82 118 -7 21 -25 15 -54 -17z m-23 -292 c0 -4 -20 -55 -52 -135 -10 -23 -12 -20 -34 44 -33 97 -33 96 31 96 30 0 55 -2 55 -5z"/>
 <path d="M2605 2169 c-10 -15 3 -25 16 -12 7 7 7 13 1 17 -6 3 -14 1 -17 -5z"/>
 <path d="M1270 2080 c0 -5 7 -10 15 -10 8 0 15 5 15 10 0 6 -7 10 -15 10 -8 0 -15 -4 -15 -10z"/>
 <path d="M927 2013 c-13 -21 -55 -91 -93 -156 l-69 -119 -3 122 c-2 110 -1 124 18 151 l21 29 -76 0 -76 0 20 -26 c20 -25 21 -40 21 -219 0 -177 -2 -194 -20 -218 -11 -14 -20 -28 -20 -31 0 -3 46 -6 103 -6 103 0 103 0 125 30 12 16 22 31 22 33 0 3 31 58 70 123 l70 119 0 -124 c0 -114 -2 -127 -22 -148 l-21 -23 78 0 78 0 -19 21 c-17 19 -19 38 -18 221 1 188 2 200 23 222 11 12 21 25 21 29 0 4 -47 7 -105 7 l-105 0 -23 -37z"/>
 <path d="M1900 1945 c0 -27 9 -32 28 -13 8 8 9 15 1 25 -17 20 -29 15 -29 -12z"/>
 <path d="M2500 1560 c0 -5 7 -10 15 -10 8 0 15 5 15 10 0 6 -7 10 -15 10 -8 0 -15 -4 -15 -10z"/>
 <path d="M1397 1142 c-12 -15 -12 -19 2 -32 14 -13 18 -13 31 0 13 13 13 17 -2 32 -15 15 -17 15 -31 0z"/>
 <path d="M1567 894 c-8 -8 1 -24 14 -24 5 0 9 7 9 15 0 15 -12 20 -23 9z"/>
 <path d="M1536 873 c-11 -11 -6 -23 9 -23 8 0 15 4 15 9 0 13 -16 22 -24 14z"/>
 <path d="M2026 735 c-3 -9 -2 -23 2 -31 7 -13 10 -13 22 1 11 13 11 18 -2 31 -14 14 -16 14 -22 -1z"/>
 <path d="M1485 670 c-4 -6 5 -10 20 -10 15 0 24 4 20 10 -3 6 -12 10 -20 10 -8 0 -17 -4 -20 -10z"/>
 <path d="M1435 629 c11 -4 28 -10 39 -13 15 -5 16 -9 6 -21 -16 -20 -6 -19 14 1 22 22 2 41 -44 41 -26 0 -29 -2 -15 -8z"/>
 <path d="M1754 615 c-4 -8 -18 -15 -34 -15 -29 0 -43 -19 -34 -45 4 -8 1 -21 -5 -29 -9 -11 -5 -15 21 -21 45 -10 115 -13 160 -7 31 3 37 8 40 30 2 14 8 27 14 29 7 2 10 -6 7 -22 -8 -38 19 -32 69 18 42 41 43 42 18 46 -14 1 -28 7 -31 13 -7 11 -169 16 -169 5 0 -4 16 -15 35 -24 19 -9 35 -20 35 -25 0 -25 -90 15 -97 43 -6 23 -21 25 -29 4z m-34 -45 c0 -11 -4 -20 -10 -20 -5 0 -10 9 -10 20 0 11 5 20 10 20 6 0 10 -9 10 -20z m97 -35 c8 -22 -6 -33 -17 -15 -13 20 -12 30 0 30 6 0 13 -7 17 -15z"/>
 <path d="M1630 601 c0 -6 5 -13 10 -16 14 -9 12 -36 -2 -33 -22 5 -20 -16 2 -24 13 -5 19 -4 15 2 -3 6 -1 10 5 10 7 0 9 8 5 19 -3 11 -1 23 6 26 8 6 7 10 -2 16 -19 12 -39 11 -39 0z"/>
 </g>
<g id="layer111" fill="#e8a398" stroke="none">
 <path d="M1264 2789 c-10 -17 13 -36 27 -22 12 12 4 33 -11 33 -5 0 -12 -5 -16 -11z"/>
 <path d="M2166 2554 c-70 -22 -52 -26 37 -8 144 30 227 -10 261 -126 11 -38 14 -72 10 -116 -6 -54 -9 -61 -25 -57 -23 6 -26 -15 -3 -24 17 -6 14 -29 -14 -120 -12 -40 -20 -53 -35 -53 -16 0 -17 -2 -7 -15 11 -13 8 -27 -16 -83 l-28 -67 -9 38 c-11 46 -83 112 -141 129 -50 15 -161 14 -199 -1 -24 -9 -33 -8 -54 9 -32 25 -43 25 -43 1 0 -12 18 -31 48 -49 42 -28 53 -30 102 -26 94 10 149 -28 100 -68 -15 -12 -20 -22 -13 -26 5 -4 40 -27 76 -50 36 -24 71 -41 77 -37 16 10 -15 -47 -63 -118 -46 -68 -72 -82 -128 -67 -79 21 -59 61 51 104 38 15 72 31 75 36 6 10 -150 110 -173 110 -30 -1 -105 -44 -126 -72 -11 -16 -21 -49 -24 -80 -3 -44 0 -59 20 -87 31 -47 76 -71 143 -78 30 -3 55 -9 55 -12 0 -4 -51 -63 -113 -132 -228 -249 -439 -401 -620 -445 -137 -34 -232 19 -257 142 -27 128 31 357 146 573 18 36 32 67 29 69 -32 32 -162 -244 -201 -427 -48 -229 32 -400 188 -401 215 -1 566 242 816 567 50 65 59 72 99 78 29 4 49 2 59 -6 12 -10 14 -2 14 50 l0 61 -25 -16 c-14 -9 -25 -14 -25 -11 0 3 27 49 61 102 33 53 77 130 96 171 20 42 39 72 44 67 4 -4 30 -87 57 -183 l49 -174 55 -39 c53 -38 57 -39 108 -30 l53 8 84 229 c46 127 89 236 95 243 8 11 -14 13 -126 13 l-136 0 16 -25 c11 -16 14 -34 9 -55 l-7 -31 -86 3 -87 3 -3 32 c-2 18 2 41 8 53 10 19 8 20 -30 20 -22 0 -40 5 -40 10 0 6 9 41 19 80 26 94 36 233 21 290 -14 54 -51 105 -90 125 -38 19 -168 19 -234 -1z m468 -751 c-43 -113 -41 -110 -48 -93 -10 26 -46 145 -46 153 0 4 27 7 60 7 l60 0 -26 -67z"/>
 <path d="M1366 2533 c-11 -11 -6 -23 9 -23 8 0 15 4 15 9 0 13 -16 22 -24 14z"/>
 <path d="M2652 2527 c-7 -8 -6 -17 2 -29 11 -15 13 -15 23 0 13 22 -9 48 -25 29z"/>
 <path d="M962 2521 c2 -7 7 -12 11 -12 12 1 9 15 -3 20 -7 2 -11 -2 -8 -8z"/>
 <path d="M1140 2465 c0 -8 5 -15 10 -15 6 0 10 7 10 15 0 8 -4 15 -10 15 -5 0 -10 -7 -10 -15z"/>
 <path d="M920 2400 c0 -5 7 -10 15 -10 8 0 15 5 15 10 0 6 -7 10 -15 10 -8 0 -15 -4 -15 -10z"/>
 <path d="M1754 2380 c-23 -9 -134 -128 -134 -143 0 -5 8 -15 17 -22 18 -13 24 -9 144 94 44 37 46 43 23 65 -17 18 -20 18 -50 6z"/>
 <path d="M1280 2335 c0 -8 5 -15 10 -15 6 0 10 7 10 15 0 8 -4 15 -10 15 -5 0 -10 -7 -10 -15z"/>
 <path d="M2436 2343 c-11 -11 -6 -23 9 -23 8 0 15 4 15 9 0 13 -16 22 -24 14z"/>
 <path d="M2810 2310 c0 -5 7 -10 15 -10 8 0 15 5 15 10 0 6 -7 10 -15 10 -8 0 -15 -4 -15 -10z"/>
 <path d="M2764 2229 c-10 -17 13 -36 27 -22 12 12 4 33 -11 33 -5 0 -12 -5 -16 -11z"/>
 <path d="M1553 2147 c-16 -18 -58 -73 -93 -121 -55 -76 -65 -85 -71 -68 -5 12 -4 36 2 54 5 18 9 34 9 35 0 2 -34 3 -75 3 -41 0 -75 -2 -75 -5 0 -3 13 -18 29 -33 23 -21 38 -55 69 -162 22 -74 45 -161 52 -193 13 -55 12 -58 -10 -82 l-23 -25 129 0 130 0 74 203 c40 111 81 220 91 241 15 31 16 42 7 48 -16 9 -258 11 -258 1 0 -3 7 -14 16 -24 12 -13 15 -28 10 -54 l-7 -35 -59 0 c-33 0 -60 2 -60 4 0 3 38 53 85 112 47 59 84 112 82 118 -7 21 -25 15 -54 -17z m-23 -291 c0 -10 -53 -152 -60 -159 -6 -7 -50 124 -50 151 0 8 18 12 55 12 30 0 55 -2 55 -4z"/>
 <path d="M2605 2169 c-10 -15 3 -25 16 -12 7 7 7 13 1 17 -6 3 -14 1 -17 -5z"/>
 <path d="M1270 2080 c0 -5 7 -10 15 -10 8 0 15 5 15 10 0 6 -7 10 -15 10 -8 0 -15 -4 -15 -10z"/>
 <path d="M927 2013 c-12 -21 -54 -91 -92 -156 l-70 -118 -3 123 c-2 110 -1 125 18 150 l21 28 -77 0 -77 0 21 -23 c21 -22 22 -32 22 -219 0 -180 -2 -197 -20 -221 -11 -14 -20 -28 -20 -31 0 -3 46 -6 103 -6 103 0 103 0 125 30 12 16 22 31 22 33 0 3 31 58 70 123 l70 119 0 -124 c0 -114 -2 -127 -22 -148 l-21 -23 78 0 78 0 -19 21 c-17 19 -19 38 -19 219 0 192 1 199 23 222 12 14 22 27 22 31 0 4 -47 7 -105 7 l-105 0 -23 -37z"/>
 <path d="M1900 1945 c0 -27 9 -32 28 -13 8 8 9 15 1 25 -17 20 -29 15 -29 -12z"/>
 <path d="M2500 1560 c0 -5 7 -10 15 -10 8 0 15 5 15 10 0 6 -7 10 -15 10 -8 0 -15 -4 -15 -10z"/>
 <path d="M1397 1142 c-12 -15 -12 -19 2 -32 14 -13 18 -13 31 0 13 13 13 17 -2 32 -15 15 -17 15 -31 0z"/>
 <path d="M1570 885 c0 -8 5 -15 10 -15 6 0 10 7 10 15 0 8 -4 15 -10 15 -5 0 -10 -7 -10 -15z"/>
 <path d="M1530 860 c0 -5 7 -10 15 -10 8 0 15 5 15 10 0 6 -7 10 -15 10 -8 0 -15 -4 -15 -10z"/>
 <path d="M2027 736 c-4 -9 -4 -23 -1 -31 5 -13 8 -13 21 1 14 14 14 17 1 30 -14 14 -16 14 -21 0z"/>
 <path d="M1490 670 c-12 -8 -11 -10 8 -10 12 0 22 5 22 10 0 13 -11 13 -30 0z"/>
 <path d="M1460 630 c0 -5 7 -10 15 -10 8 0 15 -5 15 -12 0 -6 3 -8 6 -5 8 8 -14 37 -27 37 -5 0 -9 -4 -9 -10z"/>
 <path d="M1760 605 c0 -8 -9 -15 -20 -15 -28 0 -25 -23 6 -37 18 -8 34 -9 51 -2 14 5 35 7 47 3 21 -6 21 -6 1 10 -11 8 -26 16 -32 16 -7 0 -18 9 -25 20 -15 24 -28 26 -28 5z"/>
 <path d="M1810 615 c0 -6 48 -30 80 -40 22 -7 23 -6 12 7 -10 13 -10 17 3 22 21 7 45 -3 45 -20 0 -8 -4 -14 -9 -14 -5 0 -11 -9 -14 -20 -4 -17 -2 -18 15 -9 10 6 24 9 31 6 14 -4 47 23 47 40 0 7 -9 13 -20 13 -11 0 -20 5 -20 10 0 6 -35 10 -85 10 -47 0 -85 -2 -85 -5z"/>
 <path d="M1642 589 c2 -6 8 -10 13 -10 5 0 11 4 13 10 2 6 -4 11 -13 11 -9 0 -15 -5 -13 -11z"/>
 </g>
<g id="layer112" fill="#f6c5b5" stroke="none">
 <path d="M1265 2790 c-4 -6 -3 -16 3 -22 6 -6 12 -6 17 2 4 6 3 16 -3 22 -6 6 -12 6 -17 -2z"/>
 <path d="M2210 2560 c-16 -5 -2 -6 35 -3 121 10 190 -32 221 -135 14 -49 15 -69 5 -147 -16 -129 -46 -225 -72 -225 -16 0 -17 -3 -7 -19 9 -15 9 -25 0 -43 -6 -13 -22 -49 -36 -80 -14 -32 -26 -58 -28 -58 -2 0 -1 23 1 51 3 49 1 52 -43 94 -25 24 -62 49 -83 54 -49 14 -147 14 -197 0 -34 -9 -42 -8 -67 10 l-29 22 0 -23 c0 -17 12 -31 43 -49 36 -22 52 -25 97 -22 94 8 143 -26 102 -70 l-21 -22 73 -47 74 -46 22 22 22 21 -17 -35 c-10 -19 -41 -70 -69 -112 -54 -82 -72 -93 -131 -82 -41 7 -59 26 -50 53 6 19 33 35 118 66 26 10 50 21 52 26 3 4 -33 31 -81 59 l-85 52 -42 -16 c-54 -21 -70 -34 -96 -76 -42 -69 -18 -160 54 -201 17 -10 58 -22 92 -26 l63 -8 -84 -95 c-269 -309 -553 -500 -741 -500 -62 0 -125 37 -154 89 -64 116 -20 358 110 611 26 52 46 96 44 98 -14 14 -40 -20 -88 -120 -68 -138 -104 -251 -119 -372 -10 -80 -9 -102 5 -161 36 -145 128 -198 278 -161 92 23 250 104 352 181 110 83 271 243 361 357 63 81 72 88 112 94 29 4 49 2 59 -6 13 -11 15 -5 15 44 0 60 -1 61 -31 46 -10 -6 -19 -8 -19 -4 0 4 26 48 58 98 31 50 75 128 97 173 21 46 42 80 46 75 8 -9 99 -326 99 -346 0 -9 24 -31 52 -51 45 -30 61 -35 109 -35 l57 0 26 68 c13 37 50 137 81 222 32 85 63 165 71 178 l14 22 -136 0 c-136 0 -137 0 -119 -20 13 -14 16 -28 11 -54 -4 -20 -11 -38 -17 -42 -6 -3 -46 -3 -90 1 l-79 7 0 42 c0 23 5 47 12 54 9 9 2 12 -33 12 l-45 0 23 93 c16 62 24 124 25 188 1 83 -2 103 -23 145 -33 67 -82 94 -169 93 -36 -1 -76 -5 -90 -9z m445 -707 c-4 -10 -18 -49 -32 -86 -14 -38 -29 -65 -33 -60 -9 10 -50 132 -50 150 0 9 17 13 61 13 54 0 60 -2 54 -17z"/>
 <path d="M2655 2520 c-4 -6 -3 -16 3 -22 6 -6 12 -6 17 2 4 6 3 16 -3 22 -6 6 -12 6 -17 -2z"/>
 <path d="M1723 2355 c-17 -14 -48 -48 -69 -76 -30 -41 -34 -53 -23 -60 20 -13 17 -14 99 49 57 44 75 64 75 82 0 35 -41 38 -82 5z"/>
 <path d="M1280 2335 c0 -8 5 -15 10 -15 6 0 10 7 10 15 0 8 -4 15 -10 15 -5 0 -10 -7 -10 -15z"/>
 <path d="M2435 2339 c-10 -15 3 -25 16 -12 7 7 7 13 1 17 -6 3 -14 1 -17 -5z"/>
 <path d="M2430 2240 c0 -5 7 -10 15 -10 8 0 15 5 15 10 0 6 -7 10 -15 10 -8 0 -15 -4 -15 -10z"/>
 <path d="M2770 2230 c-12 -7 -12 -12 -2 -22 9 -9 15 -9 24 0 16 16 -2 34 -22 22z"/>
 <path d="M1533 2118 c-27 -35 -69 -90 -93 -123 l-44 -59 -9 28 c-6 18 -6 36 2 52 l11 24 -72 0 -72 0 28 -29 c15 -16 31 -44 36 -62 5 -19 27 -97 49 -174 46 -155 48 -171 25 -203 l-15 -22 123 0 123 0 24 68 c13 37 53 145 88 241 38 102 61 176 55 180 -6 3 -63 5 -127 3 -88 -2 -115 -6 -106 -15 13 -13 15 -66 2 -85 -5 -9 -27 -12 -68 -10 l-61 3 90 112 c79 99 96 133 69 133 -4 0 -30 -28 -58 -62z m-1 -254 c6 -5 -49 -151 -62 -167 -6 -7 -20 30 -56 156 -5 15 2 17 54 17 32 0 61 -3 64 -6z"/>
 <path d="M865 1905 c-47 -80 -88 -152 -91 -160 -4 -8 -11 -15 -17 -15 -6 0 -8 44 -5 131 5 118 8 133 29 155 l22 24 -78 0 -78 0 21 -23 c21 -22 22 -32 22 -224 0 -166 -3 -203 -15 -213 -30 -25 -14 -30 88 -30 l102 0 80 137 c44 75 84 142 90 150 18 24 6 -236 -12 -264 l-15 -23 73 0 72 0 -21 23 c-21 22 -22 32 -22 213 0 186 0 190 25 227 l26 37 -105 0 -104 0 -87 -145z"/>
 <path d="M1900 1944 c0 -9 5 -14 12 -12 18 6 21 28 4 28 -9 0 -16 -7 -16 -16z"/>
 <path d="M1401 1136 c-9 -10 -9 -16 -1 -21 17 -10 37 12 24 25 -8 8 -15 6 -23 -4z"/>
 <path d="M2025 730 c-4 -6 -3 -16 3 -22 6 -6 12 -6 17 2 4 6 3 16 -3 22 -6 6 -12 6 -17 -2z"/>
 <path d="M1760 585 c0 -8 5 -15 10 -15 6 0 10 7 10 15 0 8 -4 15 -10 15 -5 0 -10 -7 -10 -15z"/>
 </g>
<g id="layer113" fill="#fefbfb" stroke="none">
 <path d="M2285 2563 c77 -9 98 -16 130 -44 49 -43 69 -111 63 -213 -7 -110 -45 -247 -70 -254 -15 -3 -16 -7 -7 -19 10 -11 -1 -40 -54 -146 -37 -73 -88 -163 -115 -202 -46 -66 -50 -70 -91 -73 -49 -4 -91 18 -91 47 0 25 15 36 96 69 38 15 68 32 68 37 -1 5 -36 31 -78 57 l-76 48 -50 -21 c-92 -40 -128 -114 -94 -198 22 -56 80 -90 157 -94 32 -1 57 -5 57 -8 0 -12 -138 -167 -225 -253 -317 -312 -618 -430 -737 -288 -41 49 -51 93 -46 206 6 121 43 243 124 415 60 126 58 121 44 121 -16 0 -127 -238 -157 -335 -23 -77 -27 -108 -27 -220 -1 -125 0 -132 27 -178 90 -152 332 -105 623 121 100 78 261 240 348 349 60 77 83 89 142 80 l34 -6 0 50 0 50 -30 -16 c-16 -9 -30 -12 -30 -9 0 4 23 43 51 87 28 44 74 124 101 178 27 55 53 99 57 99 4 0 29 -78 56 -172 27 -95 52 -181 57 -190 4 -10 28 -31 52 -48 36 -24 55 -30 99 -30 l54 0 82 228 c46 125 90 235 99 245 14 16 8 17 -123 17 -133 0 -138 -1 -122 -18 19 -21 22 -54 7 -83 -9 -16 -22 -19 -91 -19 -78 0 -80 1 -90 28 -7 18 -7 38 -1 60 l10 32 -40 0 c-33 0 -38 3 -34 18 42 136 58 309 36 376 -27 83 -94 128 -185 124 -32 -1 -34 -2 -10 -5z m375 -695 c0 -25 -63 -179 -71 -171 -11 12 -58 167 -52 176 8 13 123 8 123 -5z"/>
 <path d="M2655 2519 c-10 -15 3 -25 16 -12 7 7 7 13 1 17 -6 3 -14 1 -17 -5z"/>
 <path d="M1687 2309 c-60 -63 -67 -73 -54 -86 13 -13 24 -8 88 42 80 61 94 78 85 101 -12 32 -51 14 -119 -57z"/>
 <path d="M1553 2137 c-16 -18 -57 -72 -92 -120 -35 -48 -68 -84 -73 -81 -6 4 -8 28 -6 55 l5 49 -64 0 -64 0 25 -22 c26 -23 50 -94 112 -323 l24 -90 -21 -28 -20 -28 122 3 121 3 18 50 c32 88 148 399 155 418 7 16 -3 17 -120 17 -126 0 -128 0 -111 -19 13 -15 16 -28 11 -51 -8 -38 -17 -42 -89 -38 l-57 3 86 108 c47 59 85 112 85 117 0 19 -18 10 -47 -23z m-13 -272 c0 -11 -63 -170 -70 -178 -7 -7 -60 146 -60 172 0 7 24 11 65 11 36 0 65 -2 65 -5z"/>
 <path d="M1910 2056 c0 -9 21 -29 46 -45 38 -24 52 -27 81 -21 20 5 53 3 81 -3 40 -10 47 -16 50 -40 2 -18 -2 -29 -12 -33 -9 -3 -16 -10 -16 -14 0 -9 127 -90 141 -90 16 0 49 63 49 95 0 46 -31 87 -89 118 -63 35 -140 44 -220 27 -52 -11 -61 -10 -85 5 -23 16 -26 16 -26 1z"/>
 <path d="M674 2018 c24 -33 23 -413 0 -446 l-16 -23 103 3 103 3 85 147 c47 81 89 148 94 148 4 0 7 -56 7 -124 0 -110 -2 -126 -21 -150 l-20 -26 66 0 66 0 -15 22 c-13 19 -16 57 -16 219 0 184 1 198 21 223 l21 27 -103 -3 -103 -3 -95 -160 -96 -160 -3 130 c-2 117 -1 132 18 157 11 15 20 30 20 33 0 3 -30 5 -66 5 l-65 0 15 -22z"/>
 <path d="M1402 1131 c4 -13 18 -16 19 -4 0 4 -5 9 -11 12 -7 2 -11 -2 -8 -8z"/>
 <path d="M2026 732 c-3 -6 -1 -14 5 -17 15 -10 25 3 12 16 -7 7 -13 7 -17 1z"/>
 </g>

</svg>